<svg width="21" height="23" viewBox="0 0 21 23" fill="none" xmlns="http://www.w3.org/2000/svg">
<path d="M8.33716 1.43534C8.68385 0.593582 9.5216 0 10.5 0C11.4784 0 12.3161 0.593582 12.6628 1.43534C16.1235 2.36982 18.6667 5.49216 18.6667 9.2V14.6018L20.8041 17.7621C21.0427 18.115 21.065 18.5687 20.8619 18.9426C20.6589 19.3166 20.2636 19.55 19.8333 19.55H14.542C14.2589 21.5006 12.5571 23 10.5 23C8.44289 23 6.74107 21.5006 6.45802 19.55H1.16667C0.736407 19.55 0.34107 19.3166 0.138048 18.9426C-0.0649741 18.5687 -0.0427228 18.115 0.195943 17.7621L2.33333 14.6018V9.2C2.33333 5.49216 4.87647 2.36982 8.33716 1.43534ZM8.84958 19.55C9.08982 20.22 9.73804 20.7 10.5 20.7C11.262 20.7 11.9102 20.22 12.1504 19.55H8.84958ZM10.5 3.45C7.27834 3.45 4.66667 6.02436 4.66667 9.2V14.95C4.66667 15.177 4.59849 15.399 4.47073 15.5879L3.3466 17.25H17.6534L16.5293 15.5879C16.4015 15.399 16.3333 15.177 16.3333 14.95V9.2C16.3333 6.02436 13.7217 3.45 10.5 3.45Z" fill="#767E9F"/>
</svg>
