<svg width="23" height="23" viewBox="0 0 23 23" fill="none" xmlns="http://www.w3.org/2000/svg">
<path d="M0 1.15C0 0.514872 0.514872 0 1.15 0H10.35C10.655 0 10.9475 0.12116 11.1632 0.336827L22.6632 11.8368C23.1123 12.2859 23.1123 13.0141 22.6632 13.4632L13.4632 22.6632C13.0141 23.1123 12.2859 23.1123 11.8368 22.6632L0.336827 11.1632C0.12116 10.9475 0 10.655 0 10.35V1.15ZM2.3 2.3V9.87365L12.65 20.2237L20.2237 12.65L9.87365 2.3H2.3Z" fill="#767E9F"/>
<path d="M8.05 6.325C8.05 7.27769 7.27769 8.05 6.325 8.05C5.37231 8.05 4.6 7.27769 4.6 6.325C4.6 5.37231 5.37231 4.6 6.325 4.6C7.27769 4.6 8.05 5.37231 8.05 6.325Z" fill="#767E9F"/>
</svg>
