<svg width="24" height="24" viewBox="0 0 24 24" fill="none" xmlns="http://www.w3.org/2000/svg">
<path d="M0 1.2C0 0.537258 0.537258 0 1.2 0H10.8C11.1183 0 11.4235 0.126428 11.6485 0.351472L23.6485 12.3515C24.1172 12.8201 24.1172 13.5799 23.6485 14.0485L14.0485 23.6485C13.5799 24.1172 12.8201 24.1172 12.3515 23.6485L0.351472 11.6485C0.126428 11.4235 0 11.1183 0 10.8V1.2ZM2.4 2.4V10.3029L13.2 21.1029L21.1029 13.2L10.3029 2.4H2.4Z" fill="#767E9F"/>
<path d="M8.4 6.6C8.4 7.59411 7.59411 8.4 6.6 8.4C5.60589 8.4 4.8 7.59411 4.8 6.6C4.8 5.60589 5.60589 4.8 6.6 4.8C7.59411 4.8 8.4 5.60589 8.4 6.6Z" fill="#767E9F"/>
</svg>
