<svg width="27" height="27" viewBox="0 0 27 27" fill="none" xmlns="http://www.w3.org/2000/svg">
<path d="M0 1.35C0 0.604416 0.604416 0 1.35 0H12.15C12.508 0 12.8514 0.142232 13.1046 0.395406L26.6046 13.8954C27.1318 14.4226 27.1318 15.2774 26.6046 15.8046L15.8046 26.6046C15.2774 27.1318 14.4226 27.1318 13.8954 26.6046L0.395406 13.1046C0.142232 12.8514 0 12.508 0 12.15V1.35ZM2.7 2.7V11.5908L14.85 23.7408L23.7408 14.85L11.5908 2.7H2.7Z" fill="#081B33"/>
<path d="M9.45 7.425C9.45 8.54338 8.54338 9.45 7.425 9.45C6.30662 9.45 5.4 8.54338 5.4 7.425C5.4 6.30662 6.30662 5.4 7.425 5.4C8.54338 5.4 9.45 6.30662 9.45 7.425Z" fill="#081B33"/>
</svg>
