<svg width="21" height="21" viewBox="0 0 21 21" fill="none" xmlns="http://www.w3.org/2000/svg">
<circle cx="10.5" cy="10.5" r="10.5" fill="#5151E0"/>
<path d="M10.5 4C10.9487 4 11.3125 4.36377 11.3125 4.8125V9.6875H16.1875C16.6362 9.6875 17 10.0513 17 10.5C17 10.9487 16.6362 11.3125 16.1875 11.3125H11.3125V16.1875C11.3125 16.6362 10.9487 17 10.5 17C10.0513 17 9.6875 16.6362 9.6875 16.1875V11.3125H4.8125C4.36377 11.3125 4 10.9487 4 10.5C4 10.0513 4.36377 9.6875 4.8125 9.6875H9.6875V4.8125C9.6875 4.36377 10.0513 4 10.5 4Z" fill="white"/>
</svg>
