<svg width="15" height="10" viewBox="0 0 15 10" fill="none" xmlns="http://www.w3.org/2000/svg">
<path d="M9.75 5C9.75 6.18347 8.74264 7.14286 7.5 7.14286C6.25736 7.14286 5.25 6.18347 5.25 5C5.25 3.81653 6.25736 2.85714 7.5 2.85714C8.74264 2.85714 9.75 3.81653 9.75 5Z" fill="#5151E0"/>
<path d="M14.9208 4.68056C13.3022 1.59739 10.4273 0 7.5 0C4.57266 0 1.69784 1.59739 0.0791796 4.68056C-0.0263932 4.88165 -0.0263932 5.11835 0.0791796 5.31944C1.69784 8.40261 4.57266 10 7.5 10C10.4273 10 13.3022 8.40261 14.9208 5.31944C15.0264 5.11835 15.0264 4.88165 14.9208 4.68056ZM7.5 8.57143C5.27341 8.57143 2.99854 7.41373 1.59724 5C2.99854 2.58627 5.27341 1.42857 7.5 1.42857C9.72659 1.42857 12.0015 2.58627 13.4028 5C12.0015 7.41373 9.72659 8.57143 7.5 8.57143Z" fill="#5151E0"/>
</svg>
