<svg width="21" height="22" viewBox="0 0 21 22" fill="none" xmlns="http://www.w3.org/2000/svg">
<path d="M7 0C7.64433 0 8.16667 0.518407 8.16667 1.15789V2.31579H12.8333V1.15789C12.8333 0.518407 13.3557 0 14 0C14.6443 0 15.1667 0.518407 15.1667 1.15789V2.31579H18.6667C19.9553 2.31579 21 3.3526 21 4.63158V19.6842C21 20.9632 19.9553 22 18.6667 22H2.33333C1.04467 22 0 20.9632 0 19.6842V4.63158C0 3.3526 1.04467 2.31579 2.33333 2.31579H5.83333V1.15789C5.83333 0.518407 6.35567 0 7 0ZM5.83333 4.63158H2.33333V8.10526H18.6667V4.63158H15.1667V5.78947C15.1667 6.42896 14.6443 6.94737 14 6.94737C13.3557 6.94737 12.8333 6.42896 12.8333 5.78947V4.63158H8.16667V5.78947C8.16667 6.42896 7.64433 6.94737 7 6.94737C6.35567 6.94737 5.83333 6.42896 5.83333 5.78947V4.63158ZM18.6667 10.4211H2.33333V19.6842H18.6667V10.4211Z" fill="#767E9F"/>
</svg>
