<svg width="25" height="25" viewBox="0 0 25 25" fill="none" xmlns="http://www.w3.org/2000/svg">
<path d="M0.523024 0.523024C1.22039 -0.174341 2.35104 -0.174341 3.04841 0.523024L12.5 9.97462L21.9516 0.523024C22.649 -0.174341 23.7796 -0.174341 24.477 0.523024C25.1743 1.22039 25.1743 2.35104 24.477 3.04841L15.0254 12.5L24.477 21.9516C25.1743 22.649 25.1743 23.7796 24.477 24.477C23.7796 25.1743 22.649 25.1743 21.9516 24.477L12.5 15.0254L3.04841 24.477C2.35104 25.1743 1.22039 25.1743 0.523024 24.477C-0.174341 23.7796 -0.174341 22.649 0.523024 21.9516L9.97462 12.5L0.523024 3.04841C-0.174341 2.35104 -0.174341 1.22039 0.523024 0.523024Z" fill="#D13D2A"/>
</svg>
