<svg width="12" height="12" viewBox="0 0 12 12" fill="none" xmlns="http://www.w3.org/2000/svg">
<path d="M6 1.2C3.34903 1.2 1.2 3.34903 1.2 6C1.2 8.65097 3.34903 10.8 6 10.8C8.65097 10.8 10.8 8.65097 10.8 6C10.8 3.34903 8.65097 1.2 6 1.2ZM0 6C0 2.68629 2.68629 0 6 0C9.31371 0 12 2.68629 12 6C12 9.31371 9.31371 12 6 12C2.68629 12 0 9.31371 0 6ZM8.79862 4.05155C9.04629 4.27171 9.0686 4.65095 8.84845 4.89862L5.64845 8.49862C5.53459 8.62671 5.37138 8.7 5.2 8.7C5.02862 8.7 4.86542 8.62671 4.75155 8.49862L3.15155 6.69862C2.9314 6.45095 2.95371 6.07171 3.20138 5.85155C3.44905 5.6314 3.82829 5.65371 4.04845 5.90138L5.2 7.19688L7.95155 4.10138C8.17171 3.85371 8.55095 3.8314 8.79862 4.05155Z" fill="#3EAF6E"/>
</svg>
