<svg width="22" height="21" viewBox="0 0 22 21" fill="none" xmlns="http://www.w3.org/2000/svg">
<path d="M10.2692 0.279179C10.686 -0.0930597 11.314 -0.0930597 11.7308 0.279179L21.6308 9.12128C22.0849 9.52683 22.1257 10.2254 21.7221 10.6817C21.3185 11.1379 20.6233 11.179 20.1692 10.7735L19.8 10.4437V18.7895C19.8 20.0103 18.815 21 17.6 21H4.40001C3.18498 21 2.20001 20.0103 2.20001 18.7895V10.4437L1.83081 10.7735C1.37675 11.179 0.681471 11.1379 0.277861 10.6817C-0.125748 10.2254 -0.0848494 9.52683 0.369211 9.12128L10.2692 0.279179ZM4.40001 8.47879V18.7895H7.7V13.2632C7.7 12.6527 8.19249 12.1579 8.8 12.1579H13.2C13.8075 12.1579 14.3 12.6527 14.3 13.2632V18.7895H17.6V8.47879L11 2.58406L4.40001 8.47879ZM12.1 18.7895V14.3684H9.9V18.7895H12.1Z" fill="#838D99"/>
</svg>
