<svg width="23" height="22" viewBox="0 0 23 22" fill="none" xmlns="http://www.w3.org/2000/svg">
<path d="M10.736 0.292473C11.1717 -0.0974911 11.8283 -0.0974911 12.264 0.292473L22.614 9.55563C23.0887 9.98048 23.1315 10.7124 22.7095 11.1903C22.2876 11.6683 21.5607 11.7113 21.086 11.2865L20.7 10.941V19.6842C20.7 20.9632 19.6702 22 18.4 22H4.60001C3.32975 22 2.30001 20.9632 2.30001 19.6842V10.941L1.91403 11.2865C1.43933 11.7113 0.712447 11.6683 0.290491 11.1903C-0.131464 10.7124 -0.0887062 9.98048 0.385993 9.55563L10.736 0.292473ZM4.60001 8.88254V19.6842H8.05V13.8947C8.05 13.2552 8.56488 12.7368 9.2 12.7368H13.8C14.4351 12.7368 14.95 13.2552 14.95 13.8947V19.6842H18.4V8.88254L11.5 2.70711L4.60001 8.88254ZM12.65 19.6842V15.0526H10.35V19.6842H12.65Z" fill="#767E9F"/>
</svg>
