<svg width="18" height="18" viewBox="0 0 18 18" fill="none" xmlns="http://www.w3.org/2000/svg">
<path d="M4.5 1.8C4.5 0.805887 5.30589 0 6.3 0H11.7C12.6941 0 13.5 0.805887 13.5 1.8V3.6H15.2907C15.2963 3.59995 15.3018 3.59995 15.3074 3.6H17.1C17.5971 3.6 18 4.00294 18 4.5C18 4.99706 17.5971 5.4 17.1 5.4H16.138L15.3574 16.3282C15.2901 17.2702 14.5063 18 13.562 18H4.43801C3.49366 18 2.70986 17.2702 2.64258 16.3282L1.86199 5.4H0.9C0.402944 5.4 0 4.99706 0 4.5C0 4.00294 0.402944 3.6 0.9 3.6H2.69257C2.69815 3.59995 2.70373 3.59995 2.70929 3.6H4.5V1.8ZM6.3 3.6H11.7V1.8H6.3V3.6ZM3.66658 5.4L4.43801 16.2H13.562L14.3334 5.4H3.66658ZM7.2 7.2C7.69706 7.2 8.1 7.60294 8.1 8.1V13.5C8.1 13.9971 7.69706 14.4 7.2 14.4C6.70294 14.4 6.3 13.9971 6.3 13.5V8.1C6.3 7.60294 6.70294 7.2 7.2 7.2ZM10.8 7.2C11.2971 7.2 11.7 7.60294 11.7 8.1V13.5C11.7 13.9971 11.2971 14.4 10.8 14.4C10.3029 14.4 9.9 13.9971 9.9 13.5V8.1C9.9 7.60294 10.3029 7.2 10.8 7.2Z" fill="#BABECF"/>
</svg>
