<svg width="25" height="17" viewBox="0 0 25 17" fill="none" xmlns="http://www.w3.org/2000/svg">
<path d="M16.25 8.5C16.25 10.5119 14.5711 12.1429 12.5 12.1429C10.4289 12.1429 8.75 10.5119 8.75 8.5C8.75 6.48811 10.4289 4.85714 12.5 4.85714C14.5711 4.85714 16.25 6.48811 16.25 8.5Z" fill="#838D99"/>
<path d="M24.868 7.95695C22.1703 2.71556 17.3789 0 12.5 0C7.62109 0 2.82974 2.71556 0.131966 7.95695C-0.0439887 8.29881 -0.0439887 8.70119 0.131966 9.04305C2.82974 14.2844 7.62109 17 12.5 17C17.3789 17 22.1703 14.2844 24.868 9.04305C25.044 8.70119 25.044 8.29881 24.868 7.95695ZM12.5 14.5714C8.78902 14.5714 4.99757 12.6033 2.66207 8.5C4.99757 4.39666 8.78902 2.42857 12.5 2.42857C16.211 2.42857 20.0024 4.39666 22.3379 8.5C20.0024 12.6033 16.211 14.5714 12.5 14.5714Z" fill="#838D99"/>
</svg>
