<svg width="24" height="22" viewBox="0 0 24 22" fill="none" xmlns="http://www.w3.org/2000/svg">
<path d="M3.24853 0.357981C2.7799 -0.119327 2.0201 -0.119327 1.55147 0.357981C1.08284 0.835288 1.08284 1.60916 1.55147 2.08646L4.46048 5.04933C2.74368 6.36457 1.24711 8.17108 0.126688 10.4534C-0.0422292 10.7975 -0.0422292 11.2025 0.126688 11.5466C2.71656 16.8222 7.31626 19.5556 12 19.5556C13.8662 19.5556 15.7191 19.1216 17.4367 18.2659L20.7515 21.642C21.2201 22.1193 21.9799 22.1193 22.4486 21.642C22.9172 21.1647 22.9172 20.3908 22.4486 19.9135L3.24853 0.357981ZM15.6166 16.412C14.4411 16.8803 13.2161 17.1111 12 17.1111C8.43747 17.1111 4.79768 15.1302 2.55559 11C3.53666 9.19277 4.78534 7.79705 6.17807 6.79872L8.75086 9.41916C8.52596 9.89783 8.40002 10.4339 8.40002 11C8.40002 13.0251 10.0118 14.6667 12 14.6667C12.5558 14.6667 13.0822 14.5384 13.5521 14.3093L15.6166 16.412Z" fill="#838D99"/>
<path d="M19.8628 13.3167C20.4424 12.638 20.9742 11.8663 21.4444 11C19.2023 6.86984 15.5625 4.88889 12 4.88889C11.8656 4.88889 11.7311 4.89171 11.5965 4.89736L9.45529 2.71649C10.2929 2.53551 11.145 2.44444 12 2.44444C16.6837 2.44444 21.2834 5.17776 23.8733 10.4534C24.0422 10.7975 24.0422 11.2025 23.8733 11.5466C23.2205 12.8763 22.4401 14.0445 21.5628 15.0482L19.8628 13.3167Z" fill="#838D99"/>
</svg>
