<svg width="112" height="112" viewBox="0 0 112 112" fill="none" xmlns="http://www.w3.org/2000/svg">
<circle cx="56" cy="56" r="56" fill="#D13D2A" fill-opacity="0.17"/>
<path d="M30 34.4C30 31.4177 32.4624 29 35.5 29H57.5C58.2293 29 58.9288 29.2845 59.4445 29.7908L73.1945 43.2908C73.7103 43.7972 74 44.4839 74 45.2V77.6C74 80.5823 71.5376 83 68.5 83H35.5C32.4624 83 30 80.5823 30 77.6V34.4ZM67.3609 45.2L57.5 35.5184V45.2H67.3609ZM52 34.4L35.5 34.4V77.6H68.5V50.6H54.75C53.2312 50.6 52 49.3912 52 47.9V34.4ZM41 58.7C41 57.2088 42.2312 56 43.75 56H60.25C61.7688 56 63 57.2088 63 58.7C63 60.1912 61.7688 61.4 60.25 61.4H43.75C42.2312 61.4 41 60.1912 41 58.7ZM41 69.5C41 68.0088 42.2312 66.8 43.75 66.8H60.25C61.7688 66.8 63 68.0088 63 69.5C63 70.9912 61.7688 72.2 60.25 72.2H43.75C42.2312 72.2 41 70.9912 41 69.5Z" fill="#5151E0"/>
<path d="M56.523 64.523C57.2204 63.8257 58.351 63.8257 59.0484 64.523L68.5 73.9746L77.9516 64.523C78.649 63.8257 79.7796 63.8257 80.477 64.523C81.1743 65.2204 81.1743 66.351 80.477 67.0484L71.0254 76.5L80.477 85.9516C81.1743 86.649 81.1743 87.7796 80.477 88.477C79.7796 89.1743 78.649 89.1743 77.9516 88.477L68.5 79.0254L59.0484 88.477C58.351 89.1743 57.2204 89.1743 56.523 88.477C55.8257 87.7796 55.8257 86.649 56.523 85.9516L65.9746 76.5L56.523 67.0484C55.8257 66.351 55.8257 65.2204 56.523 64.523Z" fill="#D13D2A"/>
</svg>
