<svg width="87" height="87" viewBox="0 0 87 87" fill="none" xmlns="http://www.w3.org/2000/svg">
<circle cx="43.5" cy="43.5" r="43.5" fill="#F4F7FA"/>
<path d="M65.6615 34.2033H25.406C24.3456 34.2033 23.4859 35.0646 23.4859 36.1271V58.045C23.4859 59.1075 24.3456 59.9688 25.406 59.9688H65.6615C66.722 59.9688 67.5816 59.1075 67.5816 58.045V36.1271C67.5816 35.0646 66.722 34.2033 65.6615 34.2033Z" fill="#E07E24"/>
<path d="M31.4999 50.6562C33.4678 50.6562 35.0631 49.0579 35.0631 47.0862C35.0631 45.1145 33.4678 43.5162 31.4999 43.5162C29.532 43.5162 27.9367 45.1145 27.9367 47.0862C27.9367 49.0579 29.532 50.6562 31.4999 50.6562Z" fill="#A799F2"/>
<path d="M59.4128 50.6562C61.3807 50.6562 62.976 49.0579 62.976 47.0862C62.976 45.1145 61.3807 43.5162 59.4128 43.5162C57.4449 43.5162 55.8496 45.1145 55.8496 47.0862C55.8496 49.0579 57.4449 50.6562 59.4128 50.6562Z" fill="#A799F2"/>
<path d="M45.4567 53.489C48.9863 53.489 51.8476 50.6223 51.8476 47.0859C51.8476 43.5496 48.9863 40.6829 45.4567 40.6829C41.9272 40.6829 39.0659 43.5496 39.0659 47.0859C39.0659 50.6223 41.9272 53.489 45.4567 53.489Z" fill="#A799F2"/>
<path d="M65.9763 32.289L64.5339 26.6611C64.4534 26.3265 64.3074 26.0111 64.1045 25.7334C63.9016 25.4556 63.6456 25.2209 63.3516 25.0429C63.0575 24.8649 62.7311 24.747 62.3913 24.6962C62.0515 24.6454 61.705 24.6626 61.3719 24.7469L32.0161 32.289H65.9763Z" fill="#E07E24"/>
<path d="M59.413 23.2159L57.6458 20.201C57.543 20.0224 57.4059 19.866 57.2424 19.7408C57.079 19.6156 56.8924 19.5241 56.6934 19.4716C56.4944 19.4191 56.287 19.4066 56.0832 19.4349C55.8794 19.4631 55.6832 19.5316 55.5059 19.6363L39.7534 28.8629L59.413 23.2159Z" fill="#E07E24"/>
<path d="M14.523 44.523C15.2204 43.8257 16.351 43.8257 17.0484 44.523L26.5 53.9746L35.9516 44.523C36.649 43.8257 37.7796 43.8257 38.477 44.523C39.1743 45.2204 39.1743 46.351 38.477 47.0484L29.0254 56.5L38.477 65.9516C39.1743 66.649 39.1743 67.7796 38.477 68.477C37.7796 69.1743 36.649 69.1743 35.9516 68.477L26.5 59.0254L17.0484 68.477C16.351 69.1743 15.2204 69.1743 14.523 68.477C13.8257 67.7796 13.8257 66.649 14.523 65.9516L23.9746 56.5L14.523 47.0484C13.8257 46.351 13.8257 45.2204 14.523 44.523Z" fill="#D13D2A"/>
</svg>
