<svg width="14" height="15" viewBox="0 0 14 15" fill="none" xmlns="http://www.w3.org/2000/svg">
<path d="M4.375 1.66667C3.89175 1.66667 3.5 2.03976 3.5 2.5C3.5 2.96024 3.89175 3.33333 4.375 3.33333C4.85825 3.33333 5.25 2.96024 5.25 2.5C5.25 2.03976 4.85825 1.66667 4.375 1.66667ZM1.89937 1.66667C2.25972 0.695673 3.23206 0 4.375 0C5.51794 0 6.49028 0.695673 6.85063 1.66667H13.125C13.6082 1.66667 14 2.03976 14 2.5C14 2.96024 13.6082 3.33333 13.125 3.33333H6.85063C6.49028 4.30433 5.51794 5 4.375 5C3.23206 5 2.25972 4.30433 1.89937 3.33333H0.875C0.391751 3.33333 0 2.96024 0 2.5C0 2.03976 0.391751 1.66667 0.875 1.66667H1.89937ZM9.625 6.66667C9.14175 6.66667 8.75 7.03976 8.75 7.5C8.75 7.96024 9.14175 8.33333 9.625 8.33333C10.1082 8.33333 10.5 7.96024 10.5 7.5C10.5 7.03976 10.1082 6.66667 9.625 6.66667ZM7.14937 6.66667C7.50972 5.69567 8.48206 5 9.625 5C10.7679 5 11.7403 5.69567 12.1006 6.66667H13.125C13.6082 6.66667 14 7.03976 14 7.5C14 7.96024 13.6082 8.33333 13.125 8.33333H12.1006C11.7403 9.30433 10.7679 10 9.625 10C8.48206 10 7.50972 9.30433 7.14937 8.33333H0.875C0.391751 8.33333 0 7.96024 0 7.5C0 7.03976 0.391751 6.66667 0.875 6.66667H7.14937ZM4.375 11.6667C3.89175 11.6667 3.5 12.0398 3.5 12.5C3.5 12.9602 3.89175 13.3333 4.375 13.3333C4.85825 13.3333 5.25 12.9602 5.25 12.5C5.25 12.0398 4.85825 11.6667 4.375 11.6667ZM1.89937 11.6667C2.25972 10.6957 3.23206 10 4.375 10C5.51794 10 6.49028 10.6957 6.85063 11.6667H13.125C13.6082 11.6667 14 12.0398 14 12.5C14 12.9602 13.6082 13.3333 13.125 13.3333H6.85063C6.49028 14.3043 5.51794 15 4.375 15C3.23206 15 2.25972 14.3043 1.89937 13.3333H0.875C0.391751 13.3333 0 12.9602 0 12.5C0 12.0398 0.391751 11.6667 0.875 11.6667H1.89937Z" fill="#081B33"/>
</svg>
