<svg width="87" height="87" viewBox="0 0 87 87" fill="none" xmlns="http://www.w3.org/2000/svg">
<circle cx="43.5" cy="43.5" r="43.5" fill="#EEEEFC"/>
<path d="M65.6616 34.2033H25.406C24.3456 34.2033 23.4859 35.0646 23.4859 36.1271V58.045C23.4859 59.1075 24.3456 59.9688 25.406 59.9688H65.6616C66.722 59.9688 67.5817 59.1075 67.5817 58.045V36.1271C67.5817 35.0646 66.722 34.2033 65.6616 34.2033Z" fill="#5151E0"/>
<path d="M12.1494 52.1645C11.8307 51.8495 11.6518 51.4236 11.6518 50.9798C11.6518 50.536 11.8307 50.1101 12.1494 49.7951L22.3887 39.7651C22.5518 39.6034 22.7471 39.4763 22.9625 39.3918C23.1778 39.3073 23.4086 39.2672 23.6404 39.274C23.8721 39.2687 24.1025 39.3095 24.3176 39.3939C24.5327 39.4783 24.7282 39.6045 24.8922 39.7651L35.1189 49.7951C35.4393 50.1077 35.6199 50.5323 35.6211 50.9755C35.6223 51.4187 35.4439 51.8442 35.1252 52.1584C34.8065 52.4726 34.3736 52.6497 33.9217 52.6509C33.4698 52.652 33.036 52.4771 32.7156 52.1645L25.3929 44.9827V64.3675C25.3562 64.7872 25.1603 65.1781 24.844 65.4629C24.5276 65.7478 24.1137 65.9058 23.6843 65.9058C23.2548 65.9058 22.8409 65.7478 22.5246 65.4629C22.2082 65.1781 22.0123 64.7872 21.9756 64.3675V44.9827L14.5653 52.1645C14.2441 52.4771 13.8099 52.6526 13.3574 52.6526C12.9049 52.6526 12.4707 52.4771 12.1494 52.1645Z" fill="#4AD1A0"/>
<path d="M31.4999 50.6562C33.4678 50.6562 35.0631 49.0579 35.0631 47.0862C35.0631 45.1145 33.4678 43.5162 31.4999 43.5162C29.532 43.5162 27.9367 45.1145 27.9367 47.0862C27.9367 49.0579 29.532 50.6562 31.4999 50.6562Z" fill="#A799F2"/>
<path d="M59.4128 50.6562C61.3807 50.6562 62.976 49.0579 62.976 47.0862C62.976 45.1145 61.3807 43.5162 59.4128 43.5162C57.4449 43.5162 55.8496 45.1145 55.8496 47.0862C55.8496 49.0579 57.4449 50.6562 59.4128 50.6562Z" fill="#A799F2"/>
<path d="M45.4568 53.489C48.9863 53.489 51.8476 50.6223 51.8476 47.0859C51.8476 43.5496 48.9863 40.6829 45.4568 40.6829C41.9272 40.6829 39.066 43.5496 39.066 47.0859C39.066 50.6223 41.9272 53.489 45.4568 53.489Z" fill="#A799F2"/>
<path d="M65.9764 32.289L64.5339 26.6611C64.4534 26.3265 64.3074 26.0111 64.1045 25.7334C63.9016 25.4556 63.6457 25.2209 63.3516 25.0429C63.0575 24.8649 62.7312 24.747 62.3913 24.6962C62.0515 24.6454 61.705 24.6626 61.3719 24.7469L32.0161 32.289H65.9764Z" fill="#5151E0"/>
<path d="M59.413 23.2159L57.6458 20.201C57.543 20.0224 57.4059 19.866 57.2425 19.7408C57.079 19.6156 56.8924 19.5241 56.6934 19.4716C56.4944 19.4191 56.287 19.4066 56.0832 19.4349C55.8794 19.4631 55.6832 19.5316 55.5059 19.6363L39.7534 28.8629L59.413 23.2159Z" fill="#5151E0"/>
</svg>
