<svg width="22" height="27" viewBox="0 0 22 27" fill="none" xmlns="http://www.w3.org/2000/svg">
<path d="M0 2.7C0 1.20883 1.23122 0 2.75 0H13.75C14.1147 0 14.4644 0.142232 14.7223 0.395406L21.5973 7.14541C21.8551 7.39858 22 7.74196 22 8.1V24.3C22 25.7912 20.7688 27 19.25 27H2.75C1.23122 27 0 25.7912 0 24.3V2.7ZM18.6805 8.1L13.75 3.25919V8.1H18.6805ZM11 2.7L2.75 2.7V24.3H19.25V10.8H12.375C11.6156 10.8 11 10.1956 11 9.45V2.7ZM5.5 14.85C5.5 14.1044 6.11561 13.5 6.875 13.5H15.125C15.8844 13.5 16.5 14.1044 16.5 14.85C16.5 15.5956 15.8844 16.2 15.125 16.2H6.875C6.11561 16.2 5.5 15.5956 5.5 14.85ZM5.5 20.25C5.5 19.5044 6.11561 18.9 6.875 18.9H15.125C15.8844 18.9 16.5 19.5044 16.5 20.25C16.5 20.9956 15.8844 21.6 15.125 21.6H6.875C6.11561 21.6 5.5 20.9956 5.5 20.25Z" fill="#081B33"/>
</svg>
