<svg width="12" height="14" viewBox="0 0 12 14" fill="none" xmlns="http://www.w3.org/2000/svg">
<path d="M0 1.4C0 0.626802 0.671572 0 1.5 0H7.5C7.69891 0 7.88968 0.0737498 8.03033 0.205025L11.7803 3.70503C11.921 3.8363 12 4.01435 12 4.2V12.6C12 13.3732 11.3284 14 10.5 14H1.5C0.671574 14 0 13.3732 0 12.6V1.4ZM10.1893 4.2L7.5 1.68995V4.2H10.1893ZM6 1.4L1.5 1.4V12.6H10.5V5.6H6.75C6.33579 5.6 6 5.2866 6 4.9V1.4ZM3 7.7C3 7.3134 3.33579 7 3.75 7H8.25C8.66421 7 9 7.3134 9 7.7C9 8.0866 8.66421 8.4 8.25 8.4H3.75C3.33579 8.4 3 8.0866 3 7.7ZM3 10.5C3 10.1134 3.33579 9.8 3.75 9.8H8.25C8.66421 9.8 9 10.1134 9 10.5C9 10.8866 8.66421 11.2 8.25 11.2H3.75C3.33579 11.2 3 10.8866 3 10.5Z" fill="#081B33"/>
</svg>
