<svg width="18" height="22" viewBox="0 0 18 22" fill="none" xmlns="http://www.w3.org/2000/svg">
<path d="M0 2.2C0 0.984975 1.00736 0 2.25 0H11.25C11.5484 0 11.8345 0.115892 12.0455 0.322183L17.6705 5.82218C17.8815 6.02847 18 6.30826 18 6.6V19.8C18 21.015 16.9926 22 15.75 22H2.25C1.00736 22 0 21.015 0 19.8V2.2ZM15.284 6.6L11.25 2.65563V6.6H15.284ZM9 2.2L2.25 2.2V19.8H15.75V8.8H10.125C9.50368 8.8 9 8.30751 9 7.7V2.2ZM4.5 12.1C4.5 11.4925 5.00368 11 5.625 11H12.375C12.9963 11 13.5 11.4925 13.5 12.1C13.5 12.7075 12.9963 13.2 12.375 13.2H5.625C5.00368 13.2 4.5 12.7075 4.5 12.1ZM4.5 16.5C4.5 15.8925 5.00368 15.4 5.625 15.4H12.375C12.9963 15.4 13.5 15.8925 13.5 16.5C13.5 17.1075 12.9963 17.6 12.375 17.6H5.625C5.00368 17.6 4.5 17.1075 4.5 16.5Z" fill="#081B33"/>
</svg>
