<svg width="17" height="21" viewBox="0 0 17 21" fill="none" xmlns="http://www.w3.org/2000/svg">
<path d="M0 2.1C0 0.940203 0.951394 0 2.125 0H10.625C10.9068 0 11.177 0.110625 11.3763 0.307538L16.6888 5.55754C16.8881 5.75445 17 6.02152 17 6.3V18.9C17 20.0598 16.0486 21 14.875 21H2.125C0.951396 21 0 20.0598 0 18.9V2.1ZM14.4349 6.3L10.625 2.53492V6.3H14.4349ZM8.5 2.1L2.125 2.1V18.9H14.875V8.4H9.5625C8.9757 8.4 8.5 7.9299 8.5 7.35V2.1ZM4.25 11.55C4.25 10.9701 4.7257 10.5 5.3125 10.5H11.6875C12.2743 10.5 12.75 10.9701 12.75 11.55C12.75 12.1299 12.2743 12.6 11.6875 12.6H5.3125C4.7257 12.6 4.25 12.1299 4.25 11.55ZM4.25 15.75C4.25 15.1701 4.7257 14.7 5.3125 14.7H11.6875C12.2743 14.7 12.75 15.1701 12.75 15.75C12.75 16.3299 12.2743 16.8 11.6875 16.8H5.3125C4.7257 16.8 4.25 16.3299 4.25 15.75Z" fill="#081B33"/>
</svg>
