<svg width="141" height="41" viewBox="0 0 141 41" fill="none" xmlns="http://www.w3.org/2000/svg">
<g clip-path="url(#clip0)">
<path d="M51.8482 25.9258V15.3684H56.0596V33.7001H52.1526V31.3314C51.6776 32.1894 50.9581 32.8871 50.0854 33.336C48.9998 33.8973 47.7882 34.1711 46.5664 34.1311C44.3943 34.1311 42.7218 33.4774 41.5488 32.17C40.3758 30.8626 39.7949 29.1108 39.8061 26.9147V15.3684H44.0141V26.3501C44.0141 29.1297 45.205 30.5196 47.5866 30.5196C48.9068 30.5196 49.9449 30.1253 50.7009 29.3369C51.4568 28.5484 51.8393 27.4114 51.8482 25.9258Z" fill="#081B33"/>
<path d="M62.3748 12.2914C62.0241 12.3047 61.6742 12.2474 61.346 12.1229C61.0179 11.9983 60.7182 11.8091 60.4648 11.5664C60.2189 11.3258 60.0259 11.0366 59.898 10.7174C59.7702 10.3981 59.7103 10.0558 59.7222 9.71217C59.7066 9.36009 59.7645 9.0086 59.8922 8.68008C60.02 8.35156 60.2148 8.0532 60.4643 7.80399C60.7138 7.55478 61.0126 7.36019 61.3415 7.23258C61.6704 7.10497 62.0223 7.04716 62.3748 7.06281C62.7218 7.05194 63.0672 7.11214 63.39 7.2397C63.7127 7.36726 64.0059 7.55947 64.2514 7.8045C64.499 8.05503 64.6926 8.35353 64.8203 8.68161C64.948 9.00969 65.0071 9.36041 64.994 9.71217C65.0059 10.0558 64.9461 10.3981 64.8182 10.7174C64.6904 11.0366 64.4973 11.3258 64.2514 11.5664C64.0036 11.8071 63.7096 11.9954 63.3871 12.12C63.0647 12.2446 62.7204 12.3029 62.3748 12.2914ZM60.2541 33.6968V15.3684H64.4621V33.7001L60.2541 33.6968Z" fill="#081B33"/>
<path d="M81.8297 17.7672V7.20312H86.0378V33.6968H82.1475V31.0708C80.8965 33.0954 78.8326 34.1077 75.9558 34.1077C73.34 34.1077 71.2717 33.1956 69.7508 31.3715C68.2299 29.5473 67.4695 27.2733 67.4695 24.5493C67.4695 21.8164 68.2299 19.5323 69.7508 17.697C71.2717 15.8617 73.34 14.943 75.9558 14.9407C78.6163 14.9407 80.5742 15.8829 81.8297 17.7672ZM82.0037 24.5493C82.0037 22.8276 81.5387 21.4144 80.6088 20.3096C80.1329 19.7865 79.5527 19.3684 78.9055 19.0824C78.2583 18.7963 77.5584 18.6486 76.8506 18.6486C76.1429 18.6486 75.443 18.7963 74.7958 19.0824C74.1486 19.3684 73.5684 19.7865 73.0925 20.3096C72.1492 21.4233 71.6775 22.8365 71.6775 24.5493C71.6268 26.0686 72.1296 27.5548 73.0925 28.7321C73.567 29.2576 74.1468 29.6777 74.7941 29.9652C75.4415 30.2528 76.1421 30.4014 76.8506 30.4014C77.5592 30.4014 78.2598 30.2528 78.9071 29.9652C79.5545 29.6777 80.1343 29.2576 80.6088 28.7321C81.5618 27.5505 82.057 26.0657 82.0037 24.5493Z" fill="#081B33"/>
<path d="M100.184 15.2214V19.1437C99.868 19.098 99.5495 19.0746 99.2304 19.0735C96.0705 19.0735 94.4905 20.7696 94.4905 24.1618V33.6968H90.2825V15.3684H94.1728V17.9075C95.2097 16.0923 97.0127 15.1858 99.5817 15.188L100.184 15.2214Z" fill="#081B33"/>
<path d="M110.584 34.121C107.754 34.121 105.46 33.1911 103.703 31.3313C101.96 29.508 101.012 27.0692 101.067 24.5492C101.013 22.0246 101.958 19.5806 103.696 17.7471C105.453 15.8761 107.747 14.9407 110.577 14.9407C113.407 14.9407 115.711 15.8761 117.491 17.7471C119.232 19.5795 120.179 22.0237 120.127 24.5492C120.181 27.0692 119.234 29.508 117.491 31.3313C115.74 33.1933 113.438 34.1232 110.584 34.121ZM105.278 24.5492C105.278 26.2932 105.779 27.7064 106.78 28.7889C107.275 29.3022 107.868 29.7105 108.525 29.9895C109.181 30.2684 109.887 30.4122 110.6 30.4122C111.314 30.4122 112.02 30.2684 112.676 29.9895C113.332 29.7105 113.926 29.3022 114.42 28.7889C115.424 27.7064 115.924 26.2932 115.922 24.5492C115.92 22.8052 115.419 21.3798 114.42 20.2728C113.926 19.7595 113.332 19.3511 112.676 19.0722C112.02 18.7933 111.314 18.6495 110.6 18.6495C109.887 18.6495 109.181 18.7933 108.525 19.0722C107.868 19.3511 107.275 19.7595 106.78 20.2728C105.777 21.3597 105.276 22.7852 105.278 24.5492Z" fill="#081B33"/>
<path d="M131.46 34.121C128.63 34.121 126.338 33.1911 124.583 31.3313C122.839 29.509 121.89 27.0695 121.947 24.5492C121.893 22.0234 122.84 19.5785 124.583 17.7471C126.34 15.8761 128.632 14.9407 131.46 14.9407C134.288 14.9407 136.592 15.8761 138.374 17.7471C140.115 19.5795 141.062 22.0237 141.01 24.5492C141.064 27.0692 140.117 29.508 138.374 31.3313C136.612 33.1933 134.308 34.1232 131.46 34.121ZM126.145 24.5492C126.145 26.2932 126.646 27.7064 127.65 28.7889C128.144 29.3021 128.737 29.7104 129.393 29.9893C130.05 30.2682 130.755 30.4119 131.468 30.4119C132.181 30.4119 132.887 30.2682 133.543 29.9893C134.199 29.7104 134.792 29.3021 135.287 28.7889C136.29 27.7064 136.792 26.2932 136.792 24.5492C136.792 22.8052 136.29 21.3798 135.287 20.2728C134.792 19.7596 134.199 19.3513 133.543 19.0724C132.887 18.7935 132.181 18.6498 131.468 18.6498C130.755 18.6498 130.05 18.7935 129.393 19.0724C128.737 19.3513 128.144 19.7596 127.65 20.2728C126.646 21.3597 126.145 22.7852 126.145 24.5492Z" fill="#081B33"/>
<path d="M22.6993 37.0043L17.7754 34.1646V41.0001L22.6993 38.1603C22.8007 38.1016 22.8848 38.0173 22.9433 37.9158C23.0018 37.8144 23.0326 37.6994 23.0326 37.5823C23.0326 37.4653 23.0018 37.3503 22.9433 37.2488C22.8848 37.1474 22.8007 37.0631 22.6993 37.0043Z" fill="#31319B"/>
<path d="M11.8516 37.5823L17.7756 41.0001V34.1646L11.8516 37.5823Z" fill="#3C3CAA"/>
<path d="M5.92407 34.1644L11.8515 37.5821V30.7466L5.92407 34.1644Z" fill="#4747C9"/>
<path d="M0 30.7467L5.92406 34.1645V27.3323L0 30.7467Z" fill="#565CD6"/>
<path d="M0 23.9144L5.92406 27.3321V20.4966L0 23.9144Z" fill="#4473B7"/>
<path d="M0 17.0823L5.92406 20.5001V13.6646L0 17.0823Z" fill="#209AB7"/>
<path d="M0 10.2501L5.92406 13.6645V6.83228L0 10.2501Z" fill="#4AD1A0"/>
<path d="M5.92407 6.83233L11.8515 10.2501V3.41455L5.92407 6.83233Z" fill="#3EAF6E"/>
<path d="M11.8481 3.41778L17.7756 6.83222V0L11.8481 3.41778Z" fill="#ABCC46"/>
<path d="M17.7722 6.83216L23.6963 10.2499V3.41772L17.7722 6.83216Z" fill="#E5AA33"/>
<path d="M23.6929 10.2435L29.6169 13.6612V6.82568L23.6929 10.2435Z" fill="#D65F2B"/>
<path d="M29.6169 13.6612L35.541 17.0756V10.2434L29.6169 13.6612Z" fill="#BF3030"/>
<path d="M29.6169 20.4866L35.541 23.9044V17.0688L29.6169 20.4866Z" fill="#AA3F91"/>
<path d="M17.7722 20.5035L23.6996 23.9179V17.0857L17.7722 20.5035Z" fill="#4542B7"/>
<path d="M29.6169 27.3121L35.541 30.7265V23.8943L29.6169 27.3121Z" fill="#AB46D1"/>
<path d="M24.6997 31.308L29.617 34.1445V27.3123L24.6997 30.1454C24.5968 30.2037 24.5112 30.2882 24.4516 30.3903C24.392 30.4924 24.3606 30.6085 24.3606 30.7267C24.3606 30.8449 24.392 30.961 24.4516 31.0631C24.5112 31.1652 24.5968 31.2497 24.6997 31.308Z" fill="#6D4499"/>
<path d="M17.7756 34.1644L11.8516 30.7466V37.5821L17.7756 34.1644Z" fill="#4542B7"/>
<path d="M11.8515 30.7467L5.92407 27.3323V34.1645L11.8515 30.7467Z" fill="#5151E0"/>
<path d="M5.92406 27.3321L0 23.9143V30.7465L5.92406 27.3321Z" fill="#596ED8"/>
<path d="M5.92406 20.5001L0 17.0823V23.9145L5.92406 20.5001Z" fill="#2380AF"/>
<path d="M17.7722 20.4967L11.8481 17.0823V23.9145L17.7722 20.4967Z" fill="#4747C9"/>
<path d="M17.7756 20.4999V13.6677L11.8516 17.0822L17.7756 20.4999Z" fill="#5151E0"/>
<path d="M17.7722 20.5V27.3322L23.6996 23.9178L17.7722 20.5Z" fill="#3C3CAA"/>
<path d="M17.7722 20.5033L23.6996 17.0855L17.7722 13.6677V20.5033Z" fill="#4747C9"/>
<path d="M17.7722 20.4966L11.8481 23.9144L17.7722 27.3321V20.4966Z" fill="#4542B7"/>
<path d="M11.8515 10.2501L5.92407 6.83228V13.6645L11.8515 10.2501Z" fill="#3FBB97"/>
<path d="M17.7756 6.83216L11.8481 3.41772V10.2499L17.7756 6.83216Z" fill="#62B758"/>
<path d="M23.6996 3.41778L17.7722 0V6.83222L23.6996 3.41778Z" fill="#EACE49"/>
<path d="M29.6169 6.82557L23.6929 3.41113V10.2434L29.6169 6.82557Z" fill="#E07E24"/>
<path d="M35.541 10.2435L29.6169 6.82568V13.6612L35.541 10.2435Z" fill="#D13D2A"/>
<path d="M35.541 17.0755L29.6169 13.6577V20.4933L35.541 17.0755Z" fill="#AF3869"/>
<path d="M35.541 23.8943L29.6169 20.4766V27.3121L35.541 23.8943Z" fill="#B240B2"/>
<path d="M35.541 30.7267L29.6169 27.3123V34.1445L35.541 30.7267Z" fill="#8A44B2"/>
<path d="M5.92406 13.6644L0 10.25V17.0822L5.92406 13.6644Z" fill="#25BECE"/>
</g>
<defs>
<clipPath id="clip0">
<rect width="141" height="41" fill="white"/>
</clipPath>
</defs>
</svg>
