<svg width="93" height="28" viewBox="0 0 93 28" fill="none" xmlns="http://www.w3.org/2000/svg">
<path d="M34.1948 17.0985V10.1357H36.9723V22.2258H34.3955V20.6636C34.0823 21.2295 33.6077 21.6896 33.0322 21.9857C32.3162 22.3559 31.5171 22.5364 30.7113 22.5101C29.2788 22.5101 28.1758 22.0789 27.4022 21.2167C26.6286 20.3544 26.2454 19.1991 26.2528 17.7507V10.1357H29.0281V17.3783C29.0281 19.2116 29.8134 20.1282 31.3842 20.1282C32.2549 20.1282 32.9395 19.8682 33.4381 19.3482C33.9367 18.8282 34.1889 18.0783 34.1948 17.0985Z" fill="#081B33"/>
<path d="M41.1373 8.10639C40.906 8.11519 40.6752 8.07739 40.4588 7.99524C40.2424 7.9131 40.0447 7.78829 39.8776 7.62825C39.7155 7.46955 39.5881 7.27886 39.5038 7.06831C39.4195 6.85777 39.38 6.63199 39.3879 6.40536C39.3775 6.17315 39.4157 5.94134 39.5 5.72467C39.5843 5.50801 39.7127 5.31124 39.8773 5.14688C40.0419 4.98252 40.2389 4.85418 40.4558 4.77002C40.6727 4.68586 40.9048 4.64773 41.1373 4.65805C41.3661 4.65089 41.594 4.69059 41.8068 4.77472C42.0197 4.85884 42.213 4.98561 42.375 5.14721C42.5382 5.31244 42.6659 5.50931 42.7501 5.72568C42.8344 5.94206 42.8734 6.17336 42.8647 6.40536C42.8726 6.63199 42.8331 6.85777 42.7488 7.06831C42.6644 7.27886 42.5371 7.46955 42.375 7.62825C42.2115 7.78702 42.0176 7.91121 41.805 7.99337C41.5923 8.07553 41.3652 8.11397 41.1373 8.10639ZM39.7387 22.2236V10.1357H42.5139V22.2258L39.7387 22.2236Z" fill="#081B33"/>
<path d="M53.9681 11.7177V4.75058H56.7434V22.2236H54.1777V20.4917C53.3526 21.827 51.9915 22.4946 50.0942 22.4946C48.369 22.4946 47.0049 21.8931 46.0019 20.69C44.9988 19.487 44.4973 17.9872 44.4973 16.1907C44.4973 14.3883 44.9988 12.8819 46.0019 11.6715C47.0049 10.4611 48.369 9.85514 50.0942 9.85367C51.8488 9.85367 53.1401 10.475 53.9681 11.7177ZM54.0829 16.1907C54.0829 15.0552 53.7762 14.1231 53.1629 13.3945C52.849 13.0495 52.4664 12.7738 52.0396 12.5852C51.6127 12.3965 51.1511 12.2991 50.6843 12.2991C50.2176 12.2991 49.756 12.3965 49.3291 12.5852C48.9023 12.7738 48.5197 13.0495 48.2058 13.3945C47.5837 14.129 47.2726 15.0611 47.2726 16.1907C47.2392 17.1927 47.5707 18.1729 48.2058 18.9493C48.5188 19.2959 48.9011 19.5729 49.328 19.7626C49.755 19.9522 50.2171 20.0502 50.6843 20.0502C51.1516 20.0502 51.6137 19.9522 52.0407 19.7626C52.4676 19.5729 52.8499 19.2959 53.1629 18.9493C53.7915 18.17 54.118 17.1907 54.0829 16.1907Z" fill="#081B33"/>
<path d="M66.0728 10.0388V12.6256C65.8646 12.5955 65.6545 12.58 65.4441 12.5793C63.36 12.5793 62.318 13.6979 62.318 15.9351V22.2236H59.5427V10.1357H62.1084V11.8103C62.7923 10.6131 63.9814 10.0153 65.6757 10.0167L66.0728 10.0388Z" fill="#081B33"/>
<path d="M72.9317 22.5034C71.0653 22.5034 69.5526 21.8901 68.3937 20.6635C67.2445 19.461 66.6194 17.8526 66.6553 16.1906C66.6197 14.5256 67.2428 12.9137 68.3893 11.7045C69.5482 10.4706 71.0609 9.85364 72.9272 9.85364C74.7936 9.85364 76.3136 10.4706 77.4873 11.7045C78.6354 12.913 79.2601 14.525 79.2257 16.1906C79.2616 17.8526 78.6365 19.461 77.4873 20.6635C76.3327 21.8916 74.8142 22.5049 72.9317 22.5034ZM69.4328 16.1906C69.4328 17.3408 69.7629 18.2729 70.4233 18.9868C70.7495 19.3253 71.1408 19.5946 71.5737 19.7786C72.0066 19.9625 72.4722 20.0574 72.9427 20.0574C73.4131 20.0574 73.8788 19.9625 74.3117 19.7786C74.7446 19.5946 75.1358 19.3253 75.4621 18.9868C76.1239 18.2729 76.4541 17.3408 76.4526 16.1906C76.4511 15.0405 76.121 14.1003 75.4621 13.3703C75.1358 13.0317 74.7446 12.7624 74.3117 12.5785C73.8788 12.3945 73.4131 12.2997 72.9427 12.2997C72.4722 12.2997 72.0066 12.3945 71.5737 12.5785C71.1408 12.7624 70.7495 13.0317 70.4233 13.3703C69.7615 14.0871 69.4313 15.0272 69.4328 16.1906Z" fill="#081B33"/>
<path d="M86.7 22.5034C84.8337 22.5034 83.3218 21.8901 82.1643 20.6635C81.0141 19.4617 80.3888 17.8528 80.4259 16.1906C80.3903 14.5248 81.0151 12.9124 82.1643 11.7045C83.3232 10.4706 84.8351 9.85364 86.7 9.85364C88.5649 9.85364 90.0849 10.4706 91.2601 11.7045C92.4082 12.913 93.0328 14.525 92.9985 16.1906C93.0344 17.8526 92.4093 19.461 91.2601 20.6635C90.0982 21.8916 88.5782 22.5049 86.7 22.5034ZM83.1945 16.1906C83.1945 17.3408 83.5255 18.2729 84.1873 18.9868C84.5133 19.3252 84.9044 19.5945 85.3371 19.7784C85.7698 19.9624 86.2353 20.0572 86.7056 20.0572C87.1758 20.0572 87.6413 19.9624 88.074 19.7784C88.5067 19.5945 88.8978 19.3252 89.2238 18.9868C89.8857 18.2729 90.2166 17.3408 90.2166 16.1906C90.2166 15.0405 89.8857 14.1003 89.2238 13.3703C88.8978 13.0318 88.5067 12.7625 88.074 12.5786C87.6413 12.3947 87.1758 12.2998 86.7056 12.2998C86.2353 12.2998 85.7698 12.3947 85.3371 12.5786C84.9044 12.7625 84.5133 13.0318 84.1873 13.3703C83.5255 14.0871 83.1945 15.0272 83.1945 16.1906Z" fill="#081B33"/>
<path d="M14.9705 24.405L11.7231 22.5321V27.0403L14.9705 25.1674C15.0374 25.1286 15.0929 25.073 15.1315 25.0061C15.1701 24.9392 15.1904 24.8634 15.1904 24.7862C15.1904 24.709 15.1701 24.6331 15.1315 24.5662C15.0929 24.4993 15.0374 24.4437 14.9705 24.405Z" fill="#31319B"/>
<path d="M7.81641 24.7862L11.7234 27.0403V22.5321L7.81641 24.7862Z" fill="#3C3CAA"/>
<path d="M3.90698 22.532L7.81621 24.7861V20.2779L3.90698 22.532Z" fill="#4747C9"/>
<path d="M0 20.278L3.90702 22.5321V18.0261L0 20.278Z" fill="#565CD6"/>
<path d="M0 15.7719L3.90702 18.026V13.5179L0 15.7719Z" fill="#4473B7"/>
<path d="M0 11.2661L3.90702 13.5202V9.01199L0 11.2661Z" fill="#209AB7"/>
<path d="M0 6.7601L3.90702 9.01198V4.50601L0 6.7601Z" fill="#4AD1A0"/>
<path d="M3.90698 4.50604L7.81621 6.76012V2.25195L3.90698 4.50604Z" fill="#3EAF6E"/>
<path d="M7.81396 2.25408L11.7232 4.50597V0L7.81396 2.25408Z" fill="#ABCC46"/>
<path d="M11.7212 4.50594L15.6282 6.76002V2.25406L11.7212 4.50594Z" fill="#E5AA33"/>
<path d="M15.6257 6.75573L19.5328 9.00982V4.50165L15.6257 6.75573Z" fill="#D65F2B"/>
<path d="M19.533 9.00979L23.44 11.2617V6.75571L19.533 9.00979Z" fill="#BF3030"/>
<path d="M19.533 13.5113L23.44 15.7654V11.2572L19.533 13.5113Z" fill="#AA3F91"/>
<path d="M11.7212 13.5224L15.6304 15.7743V11.2683L11.7212 13.5224Z" fill="#4542B7"/>
<path d="M19.533 18.0128L23.44 20.2647V15.7587L19.533 18.0128Z" fill="#AB46D1"/>
<path d="M16.2898 20.6482L19.5328 22.5189V18.0129L16.2898 19.8814C16.2219 19.9198 16.1655 19.9756 16.1262 20.0429C16.0869 20.1103 16.0662 20.1868 16.0662 20.2648C16.0662 20.3427 16.0869 20.4193 16.1262 20.4867C16.1655 20.554 16.2219 20.6097 16.2898 20.6482Z" fill="#6D4499"/>
<path d="M11.7234 22.532L7.81641 20.2779V24.7861L11.7234 22.532Z" fill="#4542B7"/>
<path d="M7.81621 20.278L3.90698 18.0261V22.5321L7.81621 20.278Z" fill="#5151E0"/>
<path d="M3.90702 18.026L0 15.7719V20.2778L3.90702 18.026Z" fill="#596ED8"/>
<path d="M3.90702 13.5201L0 11.2661V15.772L3.90702 13.5201Z" fill="#2380AF"/>
<path d="M11.721 13.5179L7.81396 11.2661V15.772L11.721 13.5179Z" fill="#4747C9"/>
<path d="M11.7234 13.5201V9.0141L7.81641 11.266L11.7234 13.5201Z" fill="#5151E0"/>
<path d="M11.7212 13.5201V18.0261L15.6304 15.7742L11.7212 13.5201Z" fill="#3C3CAA"/>
<path d="M11.7212 13.5223L15.6304 11.2682L11.7212 9.0141V13.5223Z" fill="#4747C9"/>
<path d="M11.721 13.5179L7.81396 15.7719L11.721 18.026V13.5179Z" fill="#4542B7"/>
<path d="M7.81621 6.7601L3.90698 4.50601V9.01198L7.81621 6.7601Z" fill="#3FBB97"/>
<path d="M11.7232 4.50594L7.81396 2.25406V6.76002L11.7232 4.50594Z" fill="#62B758"/>
<path d="M15.6304 2.25408L11.7212 0V4.50597L15.6304 2.25408Z" fill="#EACE49"/>
<path d="M19.5328 4.50158L15.6257 2.24969V6.75566L19.5328 4.50158Z" fill="#E07E24"/>
<path d="M23.44 6.75573L19.533 4.50165V9.00982L23.44 6.75573Z" fill="#D13D2A"/>
<path d="M23.44 11.2616L19.533 9.00751V13.5157L23.44 11.2616Z" fill="#AF3869"/>
<path d="M23.44 15.7587L19.533 13.5046V18.0128L23.44 15.7587Z" fill="#B240B2"/>
<path d="M23.44 20.2648L19.533 18.0129V22.5189L23.44 20.2648Z" fill="#8A44B2"/>
<path d="M3.90702 9.01192L0 6.76004V11.266L3.90702 9.01192Z" fill="#25BECE"/>
</svg>
