<svg width="45" height="55" viewBox="0 0 45 55" fill="none" xmlns="http://www.w3.org/2000/svg">
<path d="M0 13.6C0 11.0595 2.07068 9 4.625 9H23.125C23.7383 9 24.3265 9.24232 24.7602 9.67365L36.3227 21.1737C36.7564 21.605 37 22.19 37 22.8V50.4C37 52.9405 34.9293 55 32.375 55H4.625C2.07069 55 0 52.9405 0 50.4V13.6ZM31.4171 22.8L23.125 14.5527V22.8H31.4171ZM18.5 13.6L4.625 13.6V50.4H32.375V27.4H20.8125C19.5353 27.4 18.5 26.3703 18.5 25.1V13.6ZM9.25 34.3C9.25 33.0297 10.2853 32 11.5625 32H25.4375C26.7147 32 27.75 33.0297 27.75 34.3C27.75 35.5703 26.7147 36.6 25.4375 36.6H11.5625C10.2853 36.6 9.25 35.5703 9.25 34.3ZM9.25 43.5C9.25 42.2297 10.2853 41.2 11.5625 41.2H25.4375C26.7147 41.2 27.75 42.2297 27.75 43.5C27.75 44.7703 26.7147 45.8 25.4375 45.8H11.5625C10.2853 45.8 9.25 44.7703 9.25 43.5Z" fill="#081B33"/>
<circle cx="34" cy="12" r="11" fill="#3FBB97"/>
<path d="M29.784 11.608C29.784 15.192 31.176 17.16 33.768 17.16C36.36 17.16 37.768 15.192 37.768 11.608C37.768 8.024 36.328 6.024 33.768 6.024C31.208 6.024 29.784 8.024 29.784 11.608ZM31.448 11.608C31.448 8.904 32.28 7.48 33.768 7.48C35.288 7.48 36.104 8.904 36.104 11.608C36.104 14.296 35.288 15.704 33.768 15.704C32.248 15.704 31.448 14.28 31.448 11.608Z" fill="white"/>
</svg>
