<svg width="22" height="24" viewBox="0 0 22 24" fill="none" xmlns="http://www.w3.org/2000/svg">
<path d="M11 2.4C8.29994 2.4 6.11111 4.54903 6.11111 7.2C6.11111 9.85097 8.29994 12 11 12C13.7001 12 15.8889 9.85097 15.8889 7.2C15.8889 4.54903 13.7001 2.4 11 2.4ZM3.66667 7.2C3.66667 3.22355 6.94991 0 11 0C15.0501 0 18.3333 3.22355 18.3333 7.2C18.3333 11.1765 15.0501 14.4 11 14.4C6.94991 14.4 3.66667 11.1765 3.66667 7.2ZM6.11111 19.2C4.08607 19.2 2.44444 20.8118 2.44444 22.8C2.44444 23.4627 1.89724 24 1.22222 24C0.547207 24 0 23.4627 0 22.8C0 19.4863 2.73604 16.8 6.11111 16.8H15.8889C19.264 16.8 22 19.4863 22 22.8C22 23.4627 21.4528 24 20.7778 24C20.1028 24 19.5556 23.4627 19.5556 22.8C19.5556 20.8118 17.9139 19.2 15.8889 19.2H6.11111Z" fill="#081B33"/>
</svg>
