<svg width="22" height="16" viewBox="0 0 22 16" fill="none" xmlns="http://www.w3.org/2000/svg">
<path d="M0 1.33333C0 0.596954 0.615608 0 1.375 0H2.75C3.50939 0 4.125 0.596954 4.125 1.33333C4.125 2.06971 3.50939 2.66667 2.75 2.66667H1.375C0.615608 2.66667 0 2.06971 0 1.33333ZM6.875 1.33333C6.875 0.596954 7.49061 0 8.25 0H20.625C21.3844 0 22 0.596954 22 1.33333C22 2.06971 21.3844 2.66667 20.625 2.66667H8.25C7.49061 2.66667 6.875 2.06971 6.875 1.33333ZM0 8C0 7.26362 0.615608 6.66667 1.375 6.66667H2.75C3.50939 6.66667 4.125 7.26362 4.125 8C4.125 8.73638 3.50939 9.33333 2.75 9.33333H1.375C0.615608 9.33333 0 8.73638 0 8ZM6.875 8C6.875 7.26362 7.49061 6.66667 8.25 6.66667H20.625C21.3844 6.66667 22 7.26362 22 8C22 8.73638 21.3844 9.33333 20.625 9.33333H8.25C7.49061 9.33333 6.875 8.73638 6.875 8ZM0 14.6667C0 13.9303 0.615608 13.3333 1.375 13.3333H2.75C3.50939 13.3333 4.125 13.9303 4.125 14.6667C4.125 15.403 3.50939 16 2.75 16H1.375C0.615608 16 0 15.403 0 14.6667ZM6.875 14.6667C6.875 13.9303 7.49061 13.3333 8.25 13.3333H20.625C21.3844 13.3333 22 13.9303 22 14.6667C22 15.403 21.3844 16 20.625 16H8.25C7.49061 16 6.875 15.403 6.875 14.6667Z" fill="#081B33"/>
</svg>
