<svg width="53" height="37" viewBox="0 0 53 37" fill="none" xmlns="http://www.w3.org/2000/svg">
<rect x="30" y="7" width="23" height="30" rx="2" fill="#5151E0"/>
<path d="M16.7656 3.7C12.6503 3.7 9.31424 7.01309 9.31424 11.1C9.31424 15.1869 12.6503 18.5 16.7656 18.5C20.8809 18.5 24.217 15.1869 24.217 11.1C24.217 7.01309 20.8809 3.7 16.7656 3.7ZM5.58854 11.1C5.58854 4.96964 10.5927 0 16.7656 0C22.9386 0 27.9427 4.96964 27.9427 11.1C27.9427 17.2304 22.9386 22.2 16.7656 22.2C10.5927 22.2 5.58854 17.2304 5.58854 11.1ZM9.31424 29.6C6.22777 29.6 3.72569 32.0848 3.72569 35.15C3.72569 36.1717 2.89167 37 1.86285 37C0.834025 37 0 36.1717 0 35.15C0 30.0414 4.17013 25.9 9.31424 25.9H24.217C29.3611 25.9 33.5312 30.0414 33.5312 35.15C33.5312 36.1717 32.6972 37 31.6684 37C30.6396 37 29.8056 36.1717 29.8056 35.15C29.8056 32.0848 27.3035 29.6 24.217 29.6H9.31424Z" fill="#5151E0"/>
<path d="M36.1558 25V20.1569H35V18.7059H36.1558V17.2941H35V15.8431H36.1558V11H39.2844L40.8388 15.8431H42.6522V11H44.8641V15.8431H46V17.2941H44.8641V18.7059H46V20.1569H44.8641V25H41.7156L40.1214 20.1569H38.3678V25H36.1558ZM38.288 15.8431H38.846L38.2681 13.9608H38.1884L38.288 15.8431ZM38.3678 18.7059H39.683L39.2446 17.2941H38.3279L38.3678 18.7059ZM41.7754 18.7059H42.692L42.6522 17.2941H41.317L41.7754 18.7059ZM42.712 21.9412H42.8116L42.7319 20.1569H42.1938L42.712 21.9412Z" fill="white"/>
<rect x="35" y="27" width="13" height="2" rx="1" fill="white"/>
<rect x="35" y="31" width="9" height="2" rx="1" fill="white"/>
</svg>
