<svg width="22" height="22" viewBox="0 0 22 22" fill="none" xmlns="http://www.w3.org/2000/svg">
<path d="M11 2.2C10.3925 2.2 9.9 2.69249 9.9 3.3C9.9 5.16148 7.64939 6.09372 6.33312 4.77745C5.90354 4.34787 5.20706 4.34787 4.77749 4.77745C4.34791 5.20703 4.34791 5.90351 4.77749 6.33308C6.0938 7.6494 5.16145 9.9 3.3 9.9C2.69249 9.9 2.2 10.3925 2.2 11C2.2 11.6075 2.69249 12.1 3.3 12.1C5.1616 12.1 6.0936 14.3507 4.77742 15.6669C4.34784 16.0965 4.34784 16.793 4.77742 17.2225C5.20699 17.6521 5.90347 17.6521 6.33305 17.2225C7.64929 15.9063 9.9 16.8384 9.9 18.7C9.9 19.3075 10.3925 19.8 11 19.8C11.6075 19.8 12.1 19.3075 12.1 18.7C12.1 16.8385 14.3506 15.9062 15.6669 17.2225C16.0965 17.6521 16.793 17.6521 17.2226 17.2225C17.6521 16.793 17.6521 16.0965 17.2226 15.6669C15.9063 14.3507 16.8385 12.1 18.7 12.1C19.3075 12.1 19.8 11.6075 19.8 11C19.8 10.3925 19.3075 9.9 18.7 9.9C16.8386 9.9 15.9061 7.64946 17.2225 6.3331C17.6521 5.90353 17.6521 5.20705 17.2225 4.77747C16.7929 4.34789 16.0964 4.34789 15.6669 4.77747C14.3506 6.09377 12.1 5.16141 12.1 3.3C12.1 2.69249 11.6075 2.2 11 2.2ZM7.70898 3.05473C7.83446 1.34673 9.25996 0 11 0C12.74 0 14.1655 1.34673 14.291 3.05473C15.5875 1.93574 17.5477 1.99144 18.7781 3.22183C20.0085 4.45223 20.0642 6.4125 18.9452 7.70897C20.6532 7.83443 22 9.25994 22 11C22 12.74 20.6533 14.1655 18.9453 14.291C20.0643 15.5875 20.0086 17.5478 18.7782 18.7782C17.5478 20.0086 15.5875 20.0643 14.291 18.9452C14.1656 20.6532 12.7401 22 11 22C9.25994 22 7.83443 20.6532 7.70897 18.9452C6.4125 20.0643 4.4522 20.0086 3.22178 18.7782C1.99138 17.5478 1.93569 15.5875 3.05473 14.291C1.34673 14.1655 0 12.74 0 11C0 9.25994 1.34677 7.83443 3.0548 7.70897C1.93576 6.4125 1.99145 4.45222 3.22185 3.22181C4.45225 1.99142 6.41251 1.93573 7.70898 3.05473Z" fill="#767E9F"/>
<path d="M11 8.8C10.4165 8.8 9.85694 9.03179 9.44436 9.44436C9.03179 9.85694 8.8 10.4165 8.8 11C8.8 11.5835 9.03179 12.1431 9.44436 12.5556C9.85694 12.9682 10.4165 13.2 11 13.2C11.5835 13.2 12.1431 12.9682 12.5556 12.5556C12.9682 12.1431 13.2 11.5835 13.2 11C13.2 10.4165 12.9682 9.85694 12.5556 9.44436C12.1431 9.03179 11.5835 8.8 11 8.8ZM7.88873 7.88873C8.71389 7.06357 9.83305 6.6 11 6.6C12.167 6.6 13.2861 7.06357 14.1113 7.88873C14.9364 8.71389 15.4 9.83305 15.4 11C15.4 12.167 14.9364 13.2861 14.1113 14.1113C13.2861 14.9364 12.167 15.4 11 15.4C9.83305 15.4 8.71389 14.9364 7.88873 14.1113C7.06357 13.2861 6.6 12.167 6.6 11C6.6 9.83305 7.06357 8.71389 7.88873 7.88873Z" fill="#767E9F"/>
</svg>
