<svg width="13" height="13" viewBox="0 0 13 13" fill="none" xmlns="http://www.w3.org/2000/svg">
<path d="M5.2 1.3C3.76406 1.3 2.6 2.46406 2.6 3.9C2.6 5.33594 3.76406 6.5 5.2 6.5C6.63594 6.5 7.8 5.33594 7.8 3.9C7.8 2.46406 6.63594 1.3 5.2 1.3ZM1.3 3.9C1.3 1.74609 3.04609 0 5.2 0C7.35391 0 9.1 1.74609 9.1 3.9C9.1 6.05391 7.35391 7.8 5.2 7.8C3.04609 7.8 1.3 6.05391 1.3 3.9ZM9.63848 1.14228C9.89232 0.888443 10.3039 0.888443 10.5577 1.14228C12.0808 2.66533 12.0808 5.13467 10.5577 6.65772C10.3039 6.91156 9.89232 6.91156 9.63848 6.65772C9.38464 6.40388 9.38464 5.99232 9.63848 5.73848C10.6538 4.72311 10.6538 3.07689 9.63848 2.06152C9.38464 1.80768 9.38464 1.39612 9.63848 1.14228ZM10.0944 9.59235C10.1815 9.24408 10.5344 9.03234 10.8826 9.11941C11.7458 9.33519 12.2921 9.8871 12.6064 10.5156C12.9104 11.1237 13 11.8021 13 12.35C13 12.709 12.709 13 12.35 13C11.991 13 11.7 12.709 11.7 12.35C11.7 11.9229 11.6271 11.4638 11.4436 11.0969C11.2704 10.7504 11.0042 10.4898 10.5674 10.3806C10.2191 10.2935 10.0073 9.94062 10.0944 9.59235ZM2.925 10.4C2.10635 10.4 1.3 11.1888 1.3 12.35C1.3 12.709 1.00899 13 0.65 13C0.291015 13 0 12.709 0 12.35C0 10.6393 1.23075 9.1 2.925 9.1H7.475C9.16925 9.1 10.4 10.6393 10.4 12.35C10.4 12.709 10.109 13 9.75 13C9.39101 13 9.1 12.709 9.1 12.35C9.1 11.1888 8.29365 10.4 7.475 10.4H2.925Z" fill="#767E9F"/>
</svg>
