<svg width="12" height="13" viewBox="0 0 12 13" fill="none" xmlns="http://www.w3.org/2000/svg">
<path d="M4 0C4.36819 0 4.66667 0.306331 4.66667 0.684211V1.36842H7.33333V0.684211C7.33333 0.306331 7.63181 0 8 0C8.36819 0 8.66667 0.306331 8.66667 0.684211V1.36842H10.6667C11.403 1.36842 12 1.98108 12 2.73684V11.6316C12 12.3873 11.403 13 10.6667 13H1.33333C0.596954 13 0 12.3873 0 11.6316V2.73684C0 1.98108 0.596954 1.36842 1.33333 1.36842H3.33333V0.684211C3.33333 0.306331 3.63181 0 4 0ZM3.33333 2.73684H1.33333V4.78947H10.6667V2.73684H8.66667V3.42105C8.66667 3.79893 8.36819 4.10526 8 4.10526C7.63181 4.10526 7.33333 3.79893 7.33333 3.42105V2.73684H4.66667V3.42105C4.66667 3.79893 4.36819 4.10526 4 4.10526C3.63181 4.10526 3.33333 3.79893 3.33333 3.42105V2.73684ZM10.6667 6.1579H1.33333V11.6316H10.6667V6.1579Z" fill="#767E9F"/>
</svg>
