<svg width="33" height="33" viewBox="0 0 33 33" fill="none" xmlns="http://www.w3.org/2000/svg">
<circle cx="16.5" cy="16.5" r="16.5" fill="#EEEEFC"/>
<path d="M10 8.7C10 7.76112 10.7275 7 11.625 7H18.125C18.3405 7 18.5472 7.08955 18.6995 7.24896L22.762 11.499C22.9144 11.6584 23 11.8746 23 12.1V22.3C23 23.2389 22.2725 24 21.375 24H11.625C10.7275 24 10 23.2389 10 22.3V8.7ZM21.0385 12.1L18.125 9.05208V12.1H21.0385ZM16.5 8.7L11.625 8.7V22.3H21.375V13.8H17.3125C16.8638 13.8 16.5 13.4194 16.5 12.95V8.7ZM13.25 16.35C13.25 15.8806 13.6138 15.5 14.0625 15.5H18.9375C19.3862 15.5 19.75 15.8806 19.75 16.35C19.75 16.8194 19.3862 17.2 18.9375 17.2H14.0625C13.6138 17.2 13.25 16.8194 13.25 16.35ZM13.25 19.75C13.25 19.2806 13.6138 18.9 14.0625 18.9H18.9375C19.3862 18.9 19.75 19.2806 19.75 19.75C19.75 20.2194 19.3862 20.6 18.9375 20.6H14.0625C13.6138 20.6 13.25 20.2194 13.25 19.75Z" fill="#5151E0"/>
</svg>
