<svg width="21" height="21" viewBox="0 0 21 21" fill="none" xmlns="http://www.w3.org/2000/svg">
<path d="M0 2.33333C0 1.04467 1.04467 0 2.33333 0H18.6667C19.9553 0 21 1.04467 21 2.33333V18.6667C21 19.9553 19.9553 21 18.6667 21H2.33333C1.04467 21 0 19.9553 0 18.6667V2.33333ZM18.6667 2.33333H2.33333V18.6667H18.6667V2.33333ZM10.5 4.66667C11.1443 4.66667 11.6667 5.189 11.6667 5.83333V15.1667C11.6667 15.811 11.1443 16.3333 10.5 16.3333C9.85567 16.3333 9.33333 15.811 9.33333 15.1667V5.83333C9.33333 5.189 9.85567 4.66667 10.5 4.66667ZM15.1667 7C15.811 7 16.3333 7.52233 16.3333 8.16667V11.6667V15.1667C16.3333 15.811 15.811 16.3333 15.1667 16.3333C14.5223 16.3333 14 15.811 14 15.1667V8.16667C14 7.52233 14.5223 7 15.1667 7ZM5.83333 9.33333C6.47767 9.33333 7 9.85567 7 10.5V15.1667C7 15.811 6.47767 16.3333 5.83333 16.3333C5.189 16.3333 4.66667 15.811 4.66667 15.1667V10.5C4.66667 9.85567 5.189 9.33333 5.83333 9.33333Z" fill="#081B33"/>
</svg>
