<svg width="22" height="22" viewBox="0 0 22 22" fill="none" xmlns="http://www.w3.org/2000/svg">
<path d="M0 2.44444C0 1.09442 1.09442 0 2.44444 0H19.5556C20.9056 0 22 1.09442 22 2.44444V19.5556C22 20.9056 20.9056 22 19.5556 22H2.44444C1.09442 22 0 20.9056 0 19.5556V2.44444ZM19.5556 2.44444H2.44444V19.5556H19.5556V2.44444ZM11 4.88889C11.675 4.88889 12.2222 5.4361 12.2222 6.11111V15.8889C12.2222 16.5639 11.675 17.1111 11 17.1111C10.325 17.1111 9.77778 16.5639 9.77778 15.8889V6.11111C9.77778 5.4361 10.325 4.88889 11 4.88889ZM15.8889 7.33333C16.5639 7.33333 17.1111 7.88054 17.1111 8.55556V12.2222V15.8889C17.1111 16.5639 16.5639 17.1111 15.8889 17.1111C15.2139 17.1111 14.6667 16.5639 14.6667 15.8889V8.55556C14.6667 7.88054 15.2139 7.33333 15.8889 7.33333ZM6.11111 9.77778C6.78613 9.77778 7.33333 10.325 7.33333 11V15.8889C7.33333 16.5639 6.78613 17.1111 6.11111 17.1111C5.4361 17.1111 4.88889 16.5639 4.88889 15.8889V11C4.88889 10.325 5.4361 9.77778 6.11111 9.77778Z" fill="#767E9F"/>
</svg>
