<svg width="87" height="87" viewBox="0 0 87 87" fill="none" xmlns="http://www.w3.org/2000/svg">
<circle cx="43.5" cy="43.5" r="43.5" fill="#EEEEFC"/>
<path d="M60.223 34.2017H19.9675C18.907 34.2017 18.0474 35.063 18.0474 36.1255V58.0434C18.0474 59.1059 18.907 59.9672 19.9675 59.9672H60.223C61.2834 59.9672 62.1431 59.1059 62.1431 58.0434V36.1255C62.1431 35.063 61.2834 34.2017 60.223 34.2017Z" fill="#5151E0"/>
<path d="M80.1769 40.0632C80.925 40.7147 80.9924 41.837 80.3274 42.5699L60.9941 63.876C60.6501 64.255 60.1571 64.4719 59.6394 64.4719C59.1217 64.4719 58.6287 64.255 58.2847 63.876L48.6181 53.2229C47.953 52.49 48.0204 51.3678 48.7686 50.7163C49.5167 50.0648 50.6624 50.1308 51.3274 50.8637L59.6394 60.0239L77.618 40.2107C78.2831 39.4778 79.4287 39.4118 80.1769 40.0632Z" fill="#4AD1A0"/>
<path d="M26.0626 50.6546C28.0305 50.6546 29.6258 49.0563 29.6258 47.0846C29.6258 45.1129 28.0305 43.5146 26.0626 43.5146C24.0947 43.5146 22.4995 45.1129 22.4995 47.0846C22.4995 49.0563 24.0947 50.6546 26.0626 50.6546Z" fill="#A799F2"/>
<path d="M53.9749 50.6546C55.9428 50.6546 57.5381 49.0563 57.5381 47.0846C57.5381 45.1129 55.9428 43.5146 53.9749 43.5146C52.007 43.5146 50.4117 45.1129 50.4117 47.0846C50.4117 49.0563 52.007 50.6546 53.9749 50.6546Z" fill="#A799F2"/>
<path d="M40.0189 53.4874C43.5484 53.4874 46.4097 50.6207 46.4097 47.0844C46.4097 43.548 43.5484 40.6813 40.0189 40.6813C36.4893 40.6813 33.6281 43.548 33.6281 47.0844C33.6281 50.6207 36.4893 53.4874 40.0189 53.4874Z" fill="#A799F2"/>
<path d="M60.5378 32.2886L59.0953 26.6608C59.0148 26.3262 58.8689 26.0108 58.666 25.7331C58.463 25.4553 58.2071 25.2206 57.913 25.0426C57.619 24.8646 57.2926 24.7467 56.9528 24.6959C56.613 24.6451 56.2665 24.6623 55.9333 24.7466L26.5776 32.2886H60.5378Z" fill="#5151E0"/>
<path d="M53.9758 23.2143L52.2085 20.1994C52.1057 20.0208 51.9687 19.8644 51.8052 19.7392C51.6417 19.614 51.4551 19.5225 51.2561 19.47C51.0571 19.4174 50.8498 19.405 50.6459 19.4332C50.4421 19.4615 50.2459 19.53 50.0687 19.6347L34.3161 28.8613L53.9758 23.2143Z" fill="#5151E0"/>
</svg>
