<svg width="112" height="112" viewBox="0 0 112 112" fill="none" xmlns="http://www.w3.org/2000/svg">
<circle cx="56" cy="56" r="56" fill="#EEEEFC"/>
<path d="M30 34.4C30 31.4177 32.4624 29 35.5 29H57.5C58.2293 29 58.9288 29.2845 59.4445 29.7908L73.1945 43.2908C73.7103 43.7972 74 44.4839 74 45.2V77.6C74 80.5823 71.5376 83 68.5 83H35.5C32.4624 83 30 80.5823 30 77.6V34.4ZM67.3609 45.2L57.5 35.5184V45.2H67.3609ZM52 34.4L35.5 34.4V77.6H68.5V50.6H54.75C53.2312 50.6 52 49.3912 52 47.9V34.4ZM41 58.7C41 57.2088 42.2312 56 43.75 56H60.25C61.7688 56 63 57.2088 63 58.7C63 60.1912 61.7688 61.4 60.25 61.4H43.75C42.2312 61.4 41 60.1912 41 58.7ZM41 69.5C41 68.0088 42.2312 66.8 43.75 66.8H60.25C61.7688 66.8 63 68.0088 63 69.5C63 70.9912 61.7688 72.2 60.25 72.2H43.75C42.2312 72.2 41 70.9912 41 69.5Z" fill="#5151E0"/>
<path d="M97.2171 51.5774C98.1802 52.416 98.267 53.8608 97.4108 54.8043L72.522 82.2328C72.0792 82.7208 71.4445 83 70.778 83C70.1115 83 69.4769 82.7208 69.0341 82.2328L56.5896 68.5186C55.7335 67.5751 55.8203 66.1303 56.7834 65.2916C57.7466 64.453 59.2214 64.538 60.0776 65.4815L70.778 77.2738L93.9229 51.7672C94.7791 50.8237 96.2539 50.7387 97.2171 51.5774Z" fill="#4AD1A0"/>
</svg>
