<svg width="112" height="112" viewBox="0 0 112 112" fill="none" xmlns="http://www.w3.org/2000/svg">
<circle cx="56" cy="56" r="56" fill="#EEEEFC"/>
<path d="M32 36.55C32 35.1417 33.1417 34 34.55 34H54.95C55.6263 34 56.2749 34.2687 56.7531 34.7469L82.2531 60.2469C83.249 61.2427 83.249 62.8573 82.2531 63.8531L61.8531 84.2531C60.8573 85.249 59.2427 85.249 58.2469 84.2531L32.7469 58.7531C32.2687 58.2749 32 57.6263 32 56.95V36.55ZM37.1 39.1V55.8938L60.05 78.8438L76.8438 62.05L53.8938 39.1H37.1Z" fill="#5151E0"/>
<path d="M49.85 48.025C49.85 50.1375 48.1375 51.85 46.025 51.85C43.9125 51.85 42.2 50.1375 42.2 48.025C42.2 45.9125 43.9125 44.2 46.025 44.2C48.1375 44.2 49.85 45.9125 49.85 48.025Z" fill="#5151E0"/>
<path d="M103.217 51.5774C104.18 52.416 104.267 53.8608 103.411 54.8043L78.5217 82.2328C78.0789 82.7208 77.4443 83 76.7778 83C76.1113 83 75.4766 82.7208 75.0338 82.2328L62.5894 68.5186C61.7333 67.5751 61.82 66.1303 62.7832 65.2916C63.7463 64.453 65.2212 64.538 66.0773 65.4815L76.7778 77.2738L99.9227 51.7672C100.779 50.8237 102.254 50.7387 103.217 51.5774Z" fill="#4AD1A0"/>
</svg>
