<svg width="33" height="33" viewBox="0 0 33 33" fill="none" xmlns="http://www.w3.org/2000/svg">
<circle cx="16.5" cy="16.5" r="16.5" fill="#ECF7F1"/>
<path d="M11.3659 24V18.119H10V16.3571H11.3659V14.6429H10V12.881H11.3659V7H15.0634L16.9004 12.881H19.0435V7H21.6576V12.881H23V14.6429H21.6576V16.3571H23V18.119H21.6576V24H17.9366L16.0525 18.119H13.9801V24H11.3659ZM13.8859 12.881H14.5453L13.8623 10.5952H13.7681L13.8859 12.881ZM13.9801 16.3571H15.5344L15.0163 14.6429H13.933L13.9801 16.3571ZM18.0072 16.3571H19.0906L19.0435 14.6429H17.4656L18.0072 16.3571ZM19.1141 20.2857H19.2319L19.1377 18.119H18.5018L19.1141 20.2857Z" fill="#3EAF6E"/>
</svg>
