<svg width="39" height="39" viewBox="0 0 39 39" fill="none" xmlns="http://www.w3.org/2000/svg">
<path d="M0 2.90583C0 1.30098 1.32666 0 2.96318 0H14.8159C15.2088 0 15.5857 0.153074 15.8635 0.425548L23.2715 7.69011C23.5493 7.96258 23.7054 8.33214 23.7054 8.71748V26.1524C23.7054 27.7573 22.3788 29.0583 20.7422 29.0583H2.96318C1.32666 29.0583 0 27.7573 0 26.1524V2.90583ZM20.1285 8.71748L14.8159 3.50764V8.71748H20.1285ZM11.8527 2.90583L2.96318 2.90583V26.1524H20.7422V11.6233H13.3343C12.516 11.6233 11.8527 10.9728 11.8527 10.1704V2.90583ZM5.92635 15.982C5.92635 15.1796 6.58968 14.5291 7.40794 14.5291H16.2975C17.1157 14.5291 17.7791 15.1796 17.7791 15.982C17.7791 16.7845 17.1157 17.435 16.2975 17.435H7.40794C6.58968 17.435 5.92635 16.7845 5.92635 15.982ZM5.92635 21.7937C5.92635 20.9913 6.58968 20.3408 7.40794 20.3408H16.2975C17.1157 20.3408 17.7791 20.9913 17.7791 21.7937C17.7791 22.5961 17.1157 23.2466 16.2975 23.2466H7.40794C6.58968 23.2466 5.92635 22.5961 5.92635 21.7937Z" fill="#5151E0"/>
<path d="M16.5348 24.7913C16.2297 24.4845 16.0585 24.0697 16.0585 23.6374C16.0585 23.2051 16.2297 22.7904 16.5348 22.4835L26.335 12.714C26.4911 12.5565 26.678 12.4328 26.8841 12.3505C27.0902 12.2682 27.3111 12.2291 27.533 12.2357C27.7547 12.2305 27.9752 12.2702 28.1811 12.3524C28.387 12.4346 28.5741 12.5577 28.7311 12.714L38.5193 22.4835C38.8259 22.788 38.9988 23.2015 39 23.6332C39.0011 24.0649 38.8303 24.4793 38.5253 24.7854C38.2203 25.0914 37.8059 25.264 37.3734 25.2651C36.9409 25.2662 36.5256 25.0958 36.219 24.7913L29.2103 17.7961L29.2103 36.6773C29.1752 37.0861 28.9877 37.4669 28.6849 37.7443C28.3821 38.0218 27.986 38.1757 27.575 38.1757C27.1639 38.1757 26.7678 38.0218 26.465 37.7443C26.1622 37.4669 25.9747 37.0861 25.9396 36.6773L25.9396 17.7961L18.847 24.7913C18.5396 25.0958 18.124 25.2667 17.6909 25.2667C17.2578 25.2667 16.8422 25.0958 16.5348 24.7913Z" fill="#4AD1A0"/>
</svg>
