<svg width="10" height="14" viewBox="0 0 10 14" fill="none" xmlns="http://www.w3.org/2000/svg">
<path d="M4.55806 0.205025C4.80214 -0.0683418 5.19786 -0.0683418 5.44194 0.205025L7.94194 3.00503C8.18602 3.27839 8.18602 3.72161 7.94194 3.99497C7.69786 4.26834 7.30214 4.26834 7.05806 3.99497L5.625 2.38995V9.8C5.625 10.1866 5.34518 10.5 5 10.5C4.65482 10.5 4.375 10.1866 4.375 9.8V2.38995L2.94194 3.99497C2.69786 4.26834 2.30214 4.26834 2.05806 3.99497C1.81398 3.72161 1.81398 3.27839 2.05806 3.00503L4.55806 0.205025ZM0.625 10.5C0.970178 10.5 1.25 10.8134 1.25 11.2V12.6H8.75V11.2C8.75 10.8134 9.02982 10.5 9.375 10.5C9.72018 10.5 10 10.8134 10 11.2V12.6C10 13.3732 9.44036 14 8.75 14H1.25C0.559644 14 0 13.3732 0 12.6V11.2C0 10.8134 0.279822 10.5 0.625 10.5Z" fill="white"/>
</svg>
