<svg width="24" height="24" viewBox="0 0 24 24" fill="none" xmlns="http://www.w3.org/2000/svg">
<circle cx="12" cy="12" r="12" fill="#767E9F"/>
<path d="M12.5 5C12.9487 5 13.3125 5.36377 13.3125 5.8125V10.6875H18.1875C18.6362 10.6875 19 11.0513 19 11.5C19 11.9487 18.6362 12.3125 18.1875 12.3125H13.3125V17.1875C13.3125 17.6362 12.9487 18 12.5 18C12.0513 18 11.6875 17.6362 11.6875 17.1875V12.3125H6.8125C6.36377 12.3125 6 11.9487 6 11.5C6 11.0513 6.36377 10.6875 6.8125 10.6875H11.6875V5.8125C11.6875 5.36377 12.0513 5 12.5 5Z" fill="white"/>
</svg>
