<svg width="14" height="18" viewBox="0 0 14 18" fill="none" xmlns="http://www.w3.org/2000/svg">
<path d="M6.38128 0.263604C6.72299 -0.087868 7.27701 -0.087868 7.61872 0.263604L11.1187 3.8636C11.4604 4.21508 11.4604 4.78492 11.1187 5.1364C10.777 5.48787 10.223 5.48787 9.88128 5.1364L7.875 3.07279V12.6C7.875 13.0971 7.48325 13.5 7 13.5C6.51675 13.5 6.125 13.0971 6.125 12.6V3.07279L4.11872 5.1364C3.77701 5.48787 3.22299 5.48787 2.88128 5.1364C2.53957 4.78492 2.53957 4.21508 2.88128 3.8636L6.38128 0.263604ZM0.875 13.5C1.35825 13.5 1.75 13.9029 1.75 14.4V16.2H12.25V14.4C12.25 13.9029 12.6418 13.5 13.125 13.5C13.6082 13.5 14 13.9029 14 14.4V16.2C14 17.1941 13.2165 18 12.25 18H1.75C0.783502 18 0 17.1941 0 16.2V14.4C0 13.9029 0.391751 13.5 0.875 13.5Z" fill="#767E9F"/>
</svg>
