<svg width="33" height="33" viewBox="0 0 33 33" fill="none" xmlns="http://www.w3.org/2000/svg">
<circle opacity="0.1" cx="16.5" cy="16.5" r="16.5" fill="#AB46D1"/>
<path fill-rule="evenodd" clip-rule="evenodd" d="M14.2221 7.33325C13.5471 7.33325 12.9999 7.88046 12.9999 8.55547V10.9999H10.5555C9.88046 10.9999 9.33325 11.5471 9.33325 12.2221V23.8333C9.33325 24.5083 9.88046 25.0555 10.5555 25.0555H21.5555C22.2305 25.0555 22.7777 24.5083 22.7777 23.8333V20.1666V12.2221V8.55547C22.7777 7.88046 22.2305 7.33325 21.5555 7.33325H14.2221ZM14.8333 9.7777C14.8333 9.44019 15.1069 9.16659 15.4444 9.16659H16.6666C17.0041 9.16659 17.2777 9.44019 17.2777 9.7777V10.9999C17.2777 11.3374 17.0041 11.611 16.6666 11.611H15.4444C15.1069 11.611 14.8333 11.3374 14.8333 10.9999V9.7777ZM14.8333 13.4444C14.8333 13.1069 15.1069 12.8333 15.4444 12.8333H16.6666C17.0041 12.8333 17.2777 13.1069 17.2777 13.4444V14.6666C17.2777 15.0041 17.0041 15.2777 16.6666 15.2777H15.4444C15.1069 15.2777 14.8333 15.0041 14.8333 14.6666V13.4444ZM15.4444 16.4999C15.1069 16.4999 14.8333 16.7735 14.8333 17.111V18.3333C14.8333 18.6708 15.1069 18.9444 15.4444 18.9444H16.6666C17.0041 18.9444 17.2777 18.6708 17.2777 18.3333V17.111C17.2777 16.7735 17.0041 16.4999 16.6666 16.4999H15.4444ZM14.8333 20.7777C14.8333 20.4402 15.1069 20.1666 15.4444 20.1666H16.6666C17.0041 20.1666 17.2777 20.4402 17.2777 20.7777V21.9999C17.2777 22.3374 17.0041 22.611 16.6666 22.611H15.4444C15.1069 22.611 14.8333 22.3374 14.8333 21.9999V20.7777ZM19.111 9.16659C18.7735 9.16659 18.4999 9.44019 18.4999 9.7777V10.9999C18.4999 11.3374 18.7735 11.611 19.111 11.611H20.3333C20.6708 11.611 20.9444 11.3374 20.9444 10.9999V9.7777C20.9444 9.44019 20.6708 9.16659 20.3333 9.16659H19.111ZM18.4999 13.4444C18.4999 13.1069 18.7735 12.8333 19.111 12.8333H20.3333C20.6708 12.8333 20.9444 13.1069 20.9444 13.4444V14.6666C20.9444 15.0041 20.6708 15.2777 20.3333 15.2777H19.111C18.7735 15.2777 18.4999 15.0041 18.4999 14.6666V13.4444ZM19.111 16.4999C18.7735 16.4999 18.4999 16.7735 18.4999 17.111V18.3333C18.4999 18.6708 18.7735 18.9444 19.111 18.9444H20.3333C20.6708 18.9444 20.9444 18.6708 20.9444 18.3333V17.111C20.9444 16.7735 20.6708 16.4999 20.3333 16.4999H19.111ZM18.4999 20.7777C18.4999 20.4402 18.7735 20.1666 19.111 20.1666H20.3333C20.6708 20.1666 20.9444 20.4402 20.9444 20.7777V21.9999C20.9444 22.3374 20.6708 22.611 20.3333 22.611H19.111C18.7735 22.611 18.4999 22.3374 18.4999 21.9999V20.7777ZM11.7777 12.8333C11.4402 12.8333 11.1666 13.1069 11.1666 13.4444V14.6666C11.1666 15.0041 11.4402 15.2777 11.7777 15.2777H12.9999C13.3374 15.2777 13.611 15.0041 13.611 14.6666V13.4444C13.611 13.1069 13.3374 12.8333 12.9999 12.8333H11.7777ZM11.1666 17.111C11.1666 16.7735 11.4402 16.4999 11.7777 16.4999H12.9999C13.3374 16.4999 13.611 16.7735 13.611 17.111V18.3333C13.611 18.6708 13.3374 18.9444 12.9999 18.9444H11.7777C11.4402 18.9444 11.1666 18.6708 11.1666 18.3333V17.111ZM11.7777 20.1666C11.4402 20.1666 11.1666 20.4402 11.1666 20.7777V21.9999C11.1666 22.3374 11.4402 22.611 11.7777 22.611H12.9999C13.3374 22.611 13.611 22.3374 13.611 21.9999V20.7777C13.611 20.4402 13.3374 20.1666 12.9999 20.1666H11.7777Z" fill="#AB46D1"/>
</svg>
