<svg width="52" height="37" viewBox="0 0 52 37" fill="none" xmlns="http://www.w3.org/2000/svg">
<path d="M16.7656 3.7C12.6503 3.7 9.31424 7.01309 9.31424 11.1C9.31424 15.1869 12.6503 18.5 16.7656 18.5C20.8809 18.5 24.217 15.1869 24.217 11.1C24.217 7.01309 20.8809 3.7 16.7656 3.7ZM5.58854 11.1C5.58854 4.96964 10.5927 0 16.7656 0C22.9386 0 27.9427 4.96964 27.9427 11.1C27.9427 17.2304 22.9386 22.2 16.7656 22.2C10.5927 22.2 5.58854 17.2304 5.58854 11.1ZM9.31424 29.6C6.22777 29.6 3.72569 32.0848 3.72569 35.15C3.72569 36.1717 2.89167 37 1.86285 37C0.834025 37 0 36.1717 0 35.15C0 30.0414 4.17013 25.9 9.31424 25.9H24.217C29.3611 25.9 33.5312 30.0414 33.5312 35.15C33.5312 36.1717 32.6972 37 31.6684 37C30.6396 37 29.8056 36.1717 29.8056 35.15C29.8056 32.0848 27.3035 29.6 24.217 29.6H9.31424Z" fill="#AB46D1"/>
<path fill-rule="evenodd" clip-rule="evenodd" d="M38 8C36.8954 8 36 8.89543 36 10V14H32C30.8954 14 30 14.8954 30 16V35C30 36.1046 30.8954 37 32 37H50C51.1046 37 52 36.1046 52 35V29V16V10C52 8.89543 51.1046 8 50 8H38ZM39 12C39 11.4477 39.4477 11 40 11H42C42.5523 11 43 11.4477 43 12V14C43 14.5523 42.5523 15 42 15H40C39.4477 15 39 14.5523 39 14V12ZM39 18C39 17.4477 39.4477 17 40 17H42C42.5523 17 43 17.4477 43 18V20C43 20.5523 42.5523 21 42 21H40C39.4477 21 39 20.5523 39 20V18ZM40 23C39.4477 23 39 23.4477 39 24V26C39 26.5523 39.4477 27 40 27H42C42.5523 27 43 26.5523 43 26V24C43 23.4477 42.5523 23 42 23H40ZM39 30C39 29.4477 39.4477 29 40 29H42C42.5523 29 43 29.4477 43 30V32C43 32.5523 42.5523 33 42 33H40C39.4477 33 39 32.5523 39 32V30ZM46 11C45.4477 11 45 11.4477 45 12V14C45 14.5523 45.4477 15 46 15H48C48.5523 15 49 14.5523 49 14V12C49 11.4477 48.5523 11 48 11H46ZM45 18C45 17.4477 45.4477 17 46 17H48C48.5523 17 49 17.4477 49 18V20C49 20.5523 48.5523 21 48 21H46C45.4477 21 45 20.5523 45 20V18ZM46 23C45.4477 23 45 23.4477 45 24V26C45 26.5523 45.4477 27 46 27H48C48.5523 27 49 26.5523 49 26V24C49 23.4477 48.5523 23 48 23H46ZM45 30C45 29.4477 45.4477 29 46 29H48C48.5523 29 49 29.4477 49 30V32C49 32.5523 48.5523 33 48 33H46C45.4477 33 45 32.5523 45 32V30ZM34 17C33.4477 17 33 17.4477 33 18V20C33 20.5523 33.4477 21 34 21H36C36.5523 21 37 20.5523 37 20V18C37 17.4477 36.5523 17 36 17H34ZM33 24C33 23.4477 33.4477 23 34 23H36C36.5523 23 37 23.4477 37 24V26C37 26.5523 36.5523 27 36 27H34C33.4477 27 33 26.5523 33 26V24ZM34 29C33.4477 29 33 29.4477 33 30V32C33 32.5523 33.4477 33 34 33H36C36.5523 33 37 32.5523 37 32V30C37 29.4477 36.5523 29 36 29H34Z" fill="#AB46D1"/>
</svg>
