<svg width="36" height="36" viewBox="0 0 36 36" fill="none" xmlns="http://www.w3.org/2000/svg">
<path d="M14.4 3.6C10.4235 3.6 7.2 6.82355 7.2 10.8C7.2 14.7764 10.4235 18 14.4 18C18.3764 18 21.6 14.7764 21.6 10.8C21.6 6.82355 18.3764 3.6 14.4 3.6ZM3.6 10.8C3.6 4.83532 8.43532 0 14.4 0C20.3647 0 25.2 4.83532 25.2 10.8C25.2 16.7647 20.3647 21.6 14.4 21.6C8.43532 21.6 3.6 16.7647 3.6 10.8ZM35.3958 16.6547C36.1388 17.3151 36.2058 18.4528 35.5453 19.1959L30.7453 24.5959C30.4037 24.9801 29.9141 25.2 29.4 25.2C28.8858 25.2 28.3962 24.9801 28.0546 24.5959L25.6546 21.8959C24.9942 21.1528 25.0611 20.0151 25.8041 19.3547C26.5471 18.6942 27.6849 18.7611 28.3453 19.5041L29.4 20.6906L32.8546 16.8041C33.5151 16.0611 34.6528 15.9942 35.3958 16.6547ZM8.1 28.8C5.83297 28.8 3.6 30.9844 3.6 34.2C3.6 35.1941 2.79411 36 1.8 36C0.805887 36 0 35.1941 0 34.2C0 29.4627 3.40824 25.2 8.1 25.2H20.7C25.3918 25.2 28.8 29.4627 28.8 34.2C28.8 35.1941 27.9941 36 27 36C26.0059 36 25.2 35.1941 25.2 34.2C25.2 30.9844 22.967 28.8 20.7 28.8H8.1Z" fill="#5151E0"/>
</svg>
