<svg width="22" height="22" viewBox="0 0 22 22" fill="none" xmlns="http://www.w3.org/2000/svg">
<path fill-rule="evenodd" clip-rule="evenodd" d="M2.44444 0C1.09442 0 0 1.09442 0 2.44444V19.5556C0 20.9056 1.09442 22 2.44444 22H19.5556C20.9056 22 22 20.9056 22 19.5556V16V13.6V9.4V7V2.44444C22 1.09442 20.9056 0 19.5556 0H2.44444ZM19.5556 7V2.44444H2.44444V19.5556H19.5556V16H15.5C13.0147 16 11 13.9853 11 11.5C11 9.01472 13.0147 7 15.5 7H19.5556ZM19.5556 9.4V13.6H15.5C14.3402 13.6 13.4 12.6598 13.4 11.5C13.4 10.3402 14.3402 9.4 15.5 9.4H19.5556Z" fill="#767E9F"/>
</svg>
