<svg width="22" height="22" viewBox="0 0 22 22" fill="none" xmlns="http://www.w3.org/2000/svg">
<path fill-rule="evenodd" clip-rule="evenodd" d="M2.33649 0.97168C1.04608 0.97168 0 2.01776 0 3.30817V19.6636C0 20.954 1.04608 22.0001 2.33649 22.0001H18.6919C19.9823 22.0001 21.0284 20.954 21.0284 19.6636V16.2651V13.8651V10.0625V7.66253V3.30817C21.0284 2.01776 19.9823 0.97168 18.6919 0.97168H2.33649ZM18.6919 7.66253V3.30817H2.33649V19.6636H18.6919V16.2651H18.6284H14.8155C12.4399 16.2651 10.5142 14.3393 10.5142 11.9638C10.5142 9.58827 12.4399 7.66253 14.8155 7.66253H18.6284H18.6919ZM14.8155 10.0625H18.6284V13.8651H14.8155C13.7654 13.8651 12.9142 13.0138 12.9142 11.9638C12.9142 10.9138 13.7654 10.0625 14.8155 10.0625Z" fill="#081B33"/>
</svg>
