<svg width="112" height="112" viewBox="0 0 112 112" fill="none" xmlns="http://www.w3.org/2000/svg">
<circle cx="56" cy="56" r="56" fill="#EEEEFC"/>
<path d="M84.5285 44.0312H32.7053C31.3401 44.0312 30.2334 45.1401 30.2334 46.5079V74.724C30.2334 76.0918 31.3401 77.2006 32.7053 77.2006H84.5285C85.8936 77.2006 87.0003 76.0918 87.0003 74.724V46.5079C87.0003 45.1401 85.8936 44.0312 84.5285 44.0312Z" fill="#5151E0"/>
<path d="M45.2163 68.2481C45.6267 68.6537 45.8569 69.2019 45.8569 69.7732C45.8569 70.3446 45.6267 70.8928 45.2163 71.2983L32.0347 84.2106C31.8248 84.4188 31.5733 84.5823 31.2961 84.6911C31.0189 84.7998 30.7218 84.8515 30.4233 84.8427C30.1251 84.8496 29.8285 84.7971 29.5516 84.6885C29.2746 84.5798 29.023 84.4172 28.8119 84.2106L15.6464 71.2983C15.234 70.8959 15.0014 70.3494 14.9999 69.7788C14.9984 69.2083 15.2281 68.6605 15.6384 68.256C16.0486 67.8515 16.606 67.6234 17.1877 67.6219C17.7694 67.6205 18.3279 67.8457 18.7404 68.2481L28.1673 77.4937L28.1673 52.5385C28.2145 51.9982 28.4667 51.495 28.874 51.1283C29.2812 50.7616 29.814 50.5581 30.3669 50.5581C30.9198 50.5581 31.4526 50.7616 31.8599 51.1283C32.2671 51.495 32.5193 51.9982 32.5665 52.5385L32.5665 77.4937L42.1062 68.2481C42.5198 67.8456 43.0787 67.6198 43.6613 67.6198C44.2438 67.6198 44.8028 67.8456 45.2163 68.2481Z" fill="#4AD1A0"/>
<path d="M40.551 65.2123C43.0844 65.2123 45.1381 63.1547 45.1381 60.6164C45.1381 58.0782 43.0844 56.0205 40.551 56.0205C38.0176 56.0205 35.9639 58.0782 35.9639 60.6164C35.9639 63.1547 38.0176 65.2123 40.551 65.2123Z" fill="#A799F2"/>
<path d="M76.4851 65.2123C79.0184 65.2123 81.0722 63.1547 81.0722 60.6164C81.0722 58.0782 79.0184 56.0205 76.4851 56.0205C73.9517 56.0205 71.8979 58.0782 71.8979 60.6164C71.8979 63.1547 73.9517 65.2123 76.4851 65.2123Z" fill="#A799F2"/>
<path d="M58.5183 68.8592C63.0621 68.8592 66.7456 65.1686 66.7456 60.6161C66.7456 56.0636 63.0621 52.373 58.5183 52.373C53.9745 52.373 50.291 56.0636 50.291 60.6161C50.291 65.1686 53.9745 68.8592 58.5183 68.8592Z" fill="#A799F2"/>
<path d="M84.9338 41.5676L83.0768 34.3226C82.9731 33.8917 82.7853 33.4858 82.524 33.1282C82.2628 32.7706 81.9333 32.4685 81.5548 32.2393C81.1762 32.0101 80.756 31.8585 80.3186 31.7931C79.8811 31.7276 79.435 31.7498 79.0062 31.8583L41.2148 41.5676H84.9338Z" fill="#5151E0"/>
<path d="M76.4853 29.8866L74.2102 26.0053C74.0779 25.7754 73.9014 25.574 73.691 25.4128C73.4805 25.2516 73.2403 25.1338 72.9841 25.0662C72.728 24.9986 72.461 24.9826 72.1986 25.019C71.9362 25.0554 71.6836 25.1435 71.4554 25.2783L51.1763 37.1562L76.4853 29.8866Z" fill="#5151E0"/>
</svg>
